<?xml version="1.0" encoding="utf-8"?>
<!-- Generator: Adobe Illustrator 17.1.0, SVG Export Plug-In . SVG Version: 6.00 Build 0)  -->
<!DOCTYPE svg PUBLIC "-//W3C//DTD SVG 1.1//EN" "http://www.w3.org/Graphics/SVG/1.1/DTD/svg11.dtd">
<svg version="1.1" id="Layer_1" xmlns="http://www.w3.org/2000/svg" xmlns:xlink="http://www.w3.org/1999/xlink" x="0px" y="0px"
	 width="1400px" height="980px" viewBox="0 0 1400 980" enable-background="new 0 0 1400 980" xml:space="preserve">
<rect fill="#DAEEE5" width="1400" height="980"/>
<g>
	<polygon fill="#294D24" points="204.3,206 204.3,210.3 189.1,225.5 188.3,226.3 188.3,222 	"/>
	<polygon fill="#898989" points="208.3,210.3 208.3,230.6 188.3,230.6 188.3,226.3 188.3,226.3 188.3,226.5 189.1,225.5 
		204.3,210.3 	"/>
	<g>
		<rect x="153.8" y="371.3" fill="#FCB216" width="26.9" height="11.8"/>
		<rect x="115.5" y="371.3" fill="#FCB216" width="26.9" height="11.8"/>
		<polygon fill="#294D24" points="182.4,356.6 182.4,371.3 180.7,371.3 153.8,371.3 152,371.3 152,356.6 153.8,356.6 180.7,356.6 		
			"/>
		<polygon fill="#294D24" points="144.1,356.6 144.1,371.3 142.4,371.3 115.5,371.3 113.8,371.3 113.8,356.6 115.5,356.6 
			142.4,356.6 		"/>
		<path fill="#5D2F10" d="M170.3,119.2v9.2l-1.3,0.3l-2.3-19.3c-1-1.5-7.8-5.1-18.6-5.1s-17.5,3.6-18.6,5.1l-2.3,19.3l-1.3-0.3v-9.2
			v-13.8c0-2.7,1-5.1,2.6-7.1h0c1.3-1.7,2.1-4,2.6-5.9c0.6-2.3,2.7-3.8,5.1-3.6c5.2,0.5,13.2,0.5,18.6,1.4c5.5,1,11.8,7.1,13,8.1
			c1.4,1.2,2.6,4.4,2.6,7.1V119.2z"/>
		<path fill="#294D24" d="M170.3,160.9l3,1.6c0,0-7.7,8.2-25.1,8.2c-17.4,0-25.1-8.2-25.1-8.2l3-1.6c0,0,8.6,6.3,22.2,6.3
			C161.7,167.3,170.3,160.9,170.3,160.9z"/>
		<polygon fill="#294D24" points="107.9,222 107.9,226.3 107.1,225.5 91.9,210.3 91.9,206 		"/>
		<polygon fill="#898989" points="107.9,226.3 107.9,230.6 87.9,230.6 87.9,210.3 91.9,210.3 107.1,225.5 107.9,226.5 107.9,226.3 
					"/>
		<polygon fill="#294D24" points="185.4,271.3 185.4,324.7 180.7,324.7 153.8,324.7 150.3,324.7 148.1,304 145.9,324.7 142.4,324.7 
			115.5,324.7 110.8,324.7 110.8,271.3 148.1,271.3 		"/>
		<path fill="#FCB216" d="M204.3,179.7V206L188.3,222v4.3l0,0v4.3v40.8h-2.9h-37.3h-37.3h-2.9v-40.8v-4.3h0v0V222L91.9,206v-26.4
			l31-17.1c0,0,7.8,8.2,25.1,8.2c17.4,0,25.1-8.2,25.1-8.2L204.3,179.7z"/>
		<path fill="#221F1F" d="M183.6,383.1c2.2,0,4,1.9,3.9,4.1l-1.9,44.8c-0.4,9.2-7.9,16.4-17.1,16.4h-41c-9.2,0-16.7-7.2-17.1-16.4
			l-1.9-44.8c-0.1-2.2,1.7-4.1,3.9-4.1h2.9h26.9h11.4h26.9H183.6z"/>
		<rect x="153.8" y="324.7" fill="#FED09F" width="26.9" height="31.9"/>
		<rect x="115.5" y="324.7" fill="#FED09F" width="26.9" height="31.9"/>
		<path fill="#FED09F" d="M126,133.3c-3.1,0-4.6-4.5-4.6-7.8c0-3.3-0.6-9,1.8-9s2.8,2.6,2.8,2.6v9.2v4.5
			C125.9,133,125.9,133.1,126,133.3L126,133.3z"/>
		<path fill="#FED09F" d="M170.3,132.8v-4.5v-9.2c0,0,0.4-2.6,2.8-2.6c2.4,0,1.8,5.7,1.8,9c0,3.3-1.5,7.8-4.6,7.8h0
			C170.3,133.1,170.3,133,170.3,132.8z"/>
		<path fill="#F3BC92" d="M165,158l5.2,2.9c0,0-8.6,6.3-22.2,6.3c-13.6,0-22.2-6.3-22.2-6.3l5.2-2.9l1.3-7.1
			c4.2,6,9.9,10.6,15.6,10.6s11.4-4.6,15.6-10.5L165,158z"/>
		<path fill="#FED09F" d="M170.3,128.3v4.5c0,0.2,0,0.3,0,0.5c-0.1,5.4-2.7,12.1-6.6,17.7v0c-4.2,6-9.9,10.5-15.6,10.5
			s-11.4-4.6-15.6-10.6c-3.8-5.5-6.4-12.2-6.6-17.7c0-0.2,0-0.3,0-0.5v-4.5l1.3,0.3l2.3-19.3c1-1.5,7.8-5.1,18.6-5.1
			s17.5,3.6,18.6,5.1l2.3,19.3L170.3,128.3z"/>
		<rect x="115.5" y="324.7" fill="#F3BC92" width="26.9" height="6.7"/>
		<rect x="153.8" y="324.7" fill="#F3BC92" width="26.9" height="6.7"/>
	</g>
	<g>
		<polygon fill="#16345A" points="425,206 425,210.3 409.9,225.5 409.1,226.3 409.1,222 		"/>
		<polygon fill="#898989" points="429.1,210.3 429.1,230.6 409.1,230.6 409.1,226.3 409.1,226.3 409.1,226.5 409.9,225.5 425,210.3 
					"/>
		<path fill="#FED09F" d="M391,132.8v-4.5v-9.2c0,0,0.4-2.6,2.8-2.6s1.8,5.7,1.8,9c0,3.3-1.5,7.8-4.6,7.8h0
			C391,133.1,391,133,391,132.8z"/>
		<polygon fill="#16345A" points="425,206 425,210.3 409.9,225.5 409.1,226.3 409.1,222 		"/>
		<polygon fill="#898989" points="429.1,210.3 429.1,230.6 409.1,230.6 409.1,226.3 409.1,226.3 409.1,226.5 409.9,225.5 425,210.3 
					"/>
		<path fill="#FED09F" d="M391,132.8v-4.5v-9.2c0,0,0.4-2.6,2.8-2.6s1.8,5.7,1.8,9c0,3.3-1.5,7.8-4.6,7.8h0
			C391,133.1,391,133,391,132.8z"/>
		<rect x="374.5" y="371.3" fill="#3D5AA8" width="26.9" height="11.8"/>
		<rect x="336.3" y="371.3" fill="#3D5AA8" width="26.9" height="11.8"/>
		<polygon fill="#16345A" points="403.2,356.6 403.2,371.3 401.4,371.3 374.5,371.3 372.8,371.3 372.8,356.6 374.5,356.6 
			401.4,356.6 		"/>
		<polygon fill="#16345A" points="364.9,356.6 364.9,371.3 363.2,371.3 336.3,371.3 334.5,371.3 334.5,356.6 336.3,356.6 
			363.2,356.6 		"/>
		<path fill="#5D2F10" d="M391,119.2v9.2l-1.3,0.3l-2.3-19.3c-1-1.5-7.8-5.1-18.6-5.1c-10.7,0-17.5,3.6-18.6,5.1l-2.3,19.3l-1.3-0.3
			v-9.2v-13.8c0-2.7,1-5.1,2.6-7.1h0c1.3-1.7,2.1-4,2.6-5.9c0.6-2.3,2.7-3.8,5.1-3.6c5.2,0.5,13.2,0.5,18.6,1.4
			c5.5,1,11.8,7.1,13,8.1c1.4,1.2,2.6,4.4,2.6,7.1V119.2z"/>
		<path fill="#16345A" d="M391,160.9l3,1.6c0,0-7.7,8.2-25.1,8.2c-17.4,0-25.1-8.2-25.1-8.2l3-1.6c0,0,8.6,6.3,22.2,6.3
			S391,160.9,391,160.9z"/>
		<polygon fill="#16345A" points="328.6,222 328.6,226.3 327.8,225.5 312.7,210.3 312.7,206 		"/>
		<polygon fill="#898989" points="328.7,226.3 328.7,230.6 308.6,230.6 308.6,210.3 312.7,210.3 327.8,225.5 328.6,226.5 
			328.6,226.3 		"/>
		<polygon fill="#16345A" points="406.2,271.3 406.2,324.7 401.4,324.7 374.5,324.7 371.1,324.7 368.9,304 366.6,324.7 363.2,324.7 
			336.3,324.7 331.6,324.7 331.6,271.3 368.9,271.3 		"/>
		<path fill="#3D5AA8" d="M425,179.7V206L409.1,222v4.3l0,0v4.3v40.8h-2.9h-37.3h-37.3h-2.9v-40.8v-4.3h0v0V222L312.7,206v-26.4
			l31-17.1c0,0,7.8,8.2,25.1,8.2c17.4,0,25.1-8.2,25.1-8.2L425,179.7z"/>
		<path fill="#221F1F" d="M404.4,383.1c2.2,0,4,1.9,3.9,4.1l-1.9,44.8c-0.4,9.2-7.9,16.4-17.1,16.4h-41c-9.2,0-16.7-7.2-17.1-16.4
			l-1.9-44.8c-0.1-2.2,1.7-4.1,3.9-4.1h2.9h26.9h11.4h26.9H404.4z"/>
		<rect x="374.5" y="324.7" fill="#FED09F" width="26.9" height="31.9"/>
		<rect x="336.3" y="324.7" fill="#FED09F" width="26.9" height="31.9"/>
		<path fill="#FED09F" d="M346.7,133.3c-3.1,0-4.6-4.5-4.6-7.8c0-3.3-0.6-9,1.8-9s2.8,2.6,2.8,2.6v9.2v4.5
			C346.7,133,346.7,133.1,346.7,133.3L346.7,133.3z"/>
		<path fill="#F3BC92" d="M385.8,158l5.2,2.9c0,0-8.6,6.3-22.2,6.3s-22.2-6.3-22.2-6.3l5.2-2.9l1.3-7.1c4.2,6,9.9,10.6,15.6,10.6
			c5.7,0,11.4-4.6,15.6-10.5L385.8,158z"/>
		<path fill="#FED09F" d="M391,128.3v4.5c0,0.2,0,0.3,0,0.5c-0.1,5.4-2.7,12.1-6.6,17.7v0c-4.2,6-9.9,10.5-15.6,10.5
			c-5.7,0-11.4-4.6-15.6-10.6c-3.8-5.5-6.4-12.2-6.6-17.7c0-0.2,0-0.3,0-0.5v-4.5l1.3,0.3l2.3-19.3c1-1.5,7.8-5.1,18.6-5.1
			c10.7,0,17.5,3.6,18.6,5.1l2.3,19.3L391,128.3z"/>
		<rect x="336.3" y="324.7" fill="#F3BC92" width="26.9" height="6.7"/>
		<rect x="374.5" y="324.7" fill="#F3BC92" width="26.9" height="6.7"/>
		<rect x="374.5" y="371.3" fill="#3D5AA8" width="26.9" height="11.8"/>
		<rect x="336.3" y="371.3" fill="#3D5AA8" width="26.9" height="11.8"/>
		<polygon fill="#16345A" points="403.2,356.6 403.2,371.3 401.4,371.3 374.5,371.3 372.8,371.3 372.8,356.6 374.5,356.6 
			401.4,356.6 		"/>
		<polygon fill="#16345A" points="364.9,356.6 364.9,371.3 363.2,371.3 336.3,371.3 334.5,371.3 334.5,356.6 336.3,356.6 
			363.2,356.6 		"/>
		<path fill="#5D2F10" d="M391,119.2v9.2l-1.3,0.3l-2.3-19.3c-1-1.5-7.8-5.1-18.6-5.1c-10.7,0-17.5,3.6-18.6,5.1l-2.3,19.3l-1.3-0.3
			v-9.2v-13.8c0-2.7,1-5.1,2.6-7.1h0c1.3-1.7,2.1-4,2.6-5.9c0.6-2.3,2.7-3.8,5.1-3.6c5.2,0.5,13.2,0.5,18.6,1.4
			c5.5,1,11.8,7.1,13,8.1c1.4,1.2,2.6,4.4,2.6,7.1V119.2z"/>
		<path fill="#16345A" d="M391,160.9l3,1.6c0,0-7.7,8.2-25.1,8.2c-17.4,0-25.1-8.2-25.1-8.2l3-1.6c0,0,8.6,6.3,22.2,6.3
			S391,160.9,391,160.9z"/>
		<polygon fill="#16345A" points="328.6,222 328.6,226.3 327.8,225.5 312.7,210.3 312.7,206 		"/>
		<polygon fill="#898989" points="328.7,226.3 328.7,230.6 308.6,230.6 308.6,210.3 312.7,210.3 327.8,225.5 328.6,226.5 
			328.6,226.3 		"/>
		<polygon fill="#16345A" points="406.2,271.3 406.2,324.7 401.4,324.7 374.5,324.7 371.1,324.7 368.9,304 366.6,324.7 363.2,324.7 
			336.3,324.7 331.6,324.7 331.6,271.3 368.9,271.3 		"/>
		<path fill="#3D5AA8" d="M425,179.7V206L409.1,222v4.3l0,0v4.3v40.8h-2.9h-37.3h-37.3h-2.9v-40.8v-4.3h0v0V222L312.7,206v-26.4
			l31-17.1c0,0,7.8,8.2,25.1,8.2c17.4,0,25.1-8.2,25.1-8.2L425,179.7z"/>
		<path fill="#221F1F" d="M404.4,383.1c2.2,0,4,1.9,3.9,4.1l-1.9,44.8c-0.4,9.2-7.9,16.4-17.1,16.4h-41c-9.2,0-16.7-7.2-17.1-16.4
			l-1.9-44.8c-0.1-2.2,1.7-4.1,3.9-4.1h2.9h26.9h11.4h26.9H404.4z"/>
		<rect x="374.5" y="324.7" fill="#FED09F" width="26.9" height="31.9"/>
		<rect x="336.3" y="324.7" fill="#FED09F" width="26.9" height="31.9"/>
		<path fill="#FED09F" d="M346.7,133.3c-3.1,0-4.6-4.5-4.6-7.8c0-3.3-0.6-9,1.8-9s2.8,2.6,2.8,2.6v9.2v4.5
			C346.7,133,346.7,133.1,346.7,133.3L346.7,133.3z"/>
		<path fill="#F3BC92" d="M385.8,158l5.2,2.9c0,0-8.6,6.3-22.2,6.3s-22.2-6.3-22.2-6.3l5.2-2.9l1.3-7.1c4.2,6,9.9,10.6,15.6,10.6
			c5.7,0,11.4-4.6,15.6-10.5L385.8,158z"/>
		<path fill="#FED09F" d="M391,128.3v4.5c0,0.2,0,0.3,0,0.5c-0.1,5.4-2.7,12.1-6.6,17.7v0c-4.2,6-9.9,10.5-15.6,10.5
			c-5.7,0-11.4-4.6-15.6-10.6c-3.8-5.5-6.4-12.2-6.6-17.7c0-0.2,0-0.3,0-0.5v-4.5l1.3,0.3l2.3-19.3c1-1.5,7.8-5.1,18.6-5.1
			c10.7,0,17.5,3.6,18.6,5.1l2.3,19.3L391,128.3z"/>
		<rect x="336.3" y="324.7" fill="#F3BC92" width="26.9" height="6.7"/>
		<rect x="374.5" y="324.7" fill="#F3BC92" width="26.9" height="6.7"/>
		<g>
			<rect x="334.5" y="271.3" fill="#3D5AA8" width="4.5" height="53.4"/>
			<rect x="398.7" y="271.3" fill="#3D5AA8" width="4.5" height="53.4"/>
		</g>
	</g>
	<g>
		<rect x="595.3" y="371.3" fill="#FFFFFF" width="26.9" height="11.8"/>
		<rect x="557" y="371.3" fill="#FFFFFF" width="26.9" height="11.8"/>
		<polygon fill="#3E5DAB" points="623.9,356.6 623.9,371.3 622.2,371.3 595.3,371.3 593.6,371.3 593.6,356.6 595.3,356.6 
			622.2,356.6 		"/>
		<polygon fill="#3E5DAB" points="585.7,356.6 585.7,371.3 583.9,371.3 557,371.3 555.3,371.3 555.3,356.6 557,356.6 583.9,356.6 		
			"/>
		<path fill="#5D2F10" d="M611.8,119.2v9.2l-1.3,0.3l-2.3-19.3c-1-1.5-7.8-5.1-18.6-5.1c-10.7,0-17.5,3.6-18.6,5.1l-2.3,19.3
			l-1.3-0.3v-9.2v-13.8c0-2.7,1-5.1,2.6-7.1h0c1.3-1.7,2.1-4,2.6-5.9c0.6-2.3,2.7-3.8,5.1-3.6c5.2,0.5,13.2,0.5,18.6,1.4
			c5.5,1,11.8,7.1,13,8.1c1.4,1.2,2.6,4.4,2.6,7.1V119.2z"/>
		<path fill="#3E5DAB" d="M611.8,160.9l3,1.6c0,0-7.7,8.2-25.1,8.2c-17.4,0-25.1-8.2-25.1-8.2l3-1.6c0,0,8.6,6.3,22.2,6.3
			S611.8,160.9,611.8,160.9z"/>
		<polygon fill="#3E5DAB" points="549.4,222 549.4,226.3 548.6,225.5 533.5,210.3 533.5,206 		"/>
		<polygon fill="#3E5DAB" points="645.8,206 645.8,210.3 630.6,225.5 629.8,226.3 629.8,222 		"/>
		<polygon fill="#898989" points="649.8,210.3 649.8,230.6 629.8,230.6 629.8,226.3 629.8,226.3 629.8,226.5 630.6,225.5 
			645.8,210.3 		"/>
		<polygon fill="#898989" points="549.4,226.3 549.4,230.6 529.4,230.6 529.4,210.3 533.5,210.3 548.6,225.5 549.4,226.5 
			549.4,226.3 		"/>
		<polygon fill="#3E5DAB" points="626.9,271.3 626.9,324.7 622.2,324.7 595.3,324.7 591.8,324.7 589.6,304 587.4,324.7 583.9,324.7 
			557,324.7 552.3,324.7 552.3,271.3 589.6,271.3 		"/>
		<path fill="#FFFFFF" d="M645.8,179.7V206L629.8,222v4.3l0,0v4.3v40.8h-2.9h-37.3h-37.3h-2.9v-40.8v-4.3h0v0V222L533.5,206v-26.4
			l31-17.1c0,0,7.8,8.2,25.1,8.2c17.4,0,25.1-8.2,25.1-8.2L645.8,179.7z"/>
		<path fill="#221F1F" d="M625.1,383.1c2.2,0,4,1.9,3.9,4.1l-1.9,44.8c-0.4,9.2-7.9,16.4-17.1,16.4h-41c-9.2,0-16.7-7.2-17.1-16.4
			l-1.9-44.8c-0.1-2.2,1.7-4.1,3.9-4.1h2.9h26.9h11.4h26.9H625.1z"/>
		<rect x="595.3" y="324.7" fill="#FED09F" width="26.9" height="31.9"/>
		<rect x="557" y="324.7" fill="#FED09F" width="26.9" height="31.9"/>
		<path fill="#FED09F" d="M567.5,133.3c-3.1,0-4.6-4.5-4.6-7.8c0-3.3-0.6-9,1.8-9c2.4,0,2.8,2.6,2.8,2.6v9.2v4.5
			C567.5,133,567.5,133.1,567.5,133.3L567.5,133.3z"/>
		<path fill="#FED09F" d="M611.8,132.8v-4.5v-9.2c0,0,0.4-2.6,2.8-2.6c2.4,0,1.8,5.7,1.8,9c0,3.3-1.5,7.8-4.6,7.8h0
			C611.8,133.1,611.8,133,611.8,132.8z"/>
		<path fill="#F3BC92" d="M606.5,158l5.2,2.9c0,0-8.6,6.3-22.2,6.3s-22.2-6.3-22.2-6.3l5.2-2.9l1.3-7.1c4.2,6,9.9,10.6,15.6,10.6
			c5.7,0,11.4-4.6,15.6-10.5L606.5,158z"/>
		<path fill="#FED09F" d="M611.8,128.3v4.5c0,0.2,0,0.3,0,0.5c-0.1,5.4-2.7,12.1-6.6,17.7v0c-4.2,6-9.9,10.5-15.6,10.5
			c-5.7,0-11.4-4.6-15.6-10.6c-3.8-5.5-6.4-12.2-6.6-17.7c0-0.2,0-0.3,0-0.5v-4.5l1.3,0.3l2.3-19.3c1-1.5,7.8-5.1,18.6-5.1
			c10.7,0,17.5,3.6,18.6,5.1l2.3,19.3L611.8,128.3z"/>
		<rect x="557" y="324.7" fill="#F3BC92" width="26.9" height="6.7"/>
		<rect x="595.3" y="324.7" fill="#F3BC92" width="26.9" height="6.7"/>
		<rect x="595.3" y="371.3" fill="#FFFFFF" width="26.9" height="11.8"/>
		<rect x="557" y="371.3" fill="#FFFFFF" width="26.9" height="11.8"/>
		<polygon fill="#3E5DAB" points="623.9,356.6 623.9,371.3 622.2,371.3 595.3,371.3 593.6,371.3 593.6,356.6 595.3,356.6 
			622.2,356.6 		"/>
		<polygon fill="#3E5DAB" points="585.7,356.6 585.7,371.3 583.9,371.3 557,371.3 555.3,371.3 555.3,356.6 557,356.6 583.9,356.6 		
			"/>
		<path fill="#5D2F10" d="M611.8,119.2v9.2l-1.3,0.3l-2.3-19.3c-1-1.5-7.8-5.1-18.6-5.1c-10.7,0-17.5,3.6-18.6,5.1l-2.3,19.3
			l-1.3-0.3v-9.2v-13.8c0-2.7,1-5.1,2.6-7.1h0c1.3-1.7,2.1-4,2.6-5.9c0.6-2.3,2.7-3.8,5.1-3.6c5.2,0.5,13.2,0.5,18.6,1.4
			c5.5,1,11.8,7.1,13,8.1c1.4,1.2,2.6,4.4,2.6,7.1V119.2z"/>
		<path fill="#3E5DAB" d="M611.8,160.9l3,1.6c0,0-7.7,8.2-25.1,8.2c-17.4,0-25.1-8.2-25.1-8.2l3-1.6c0,0,8.6,6.3,22.2,6.3
			S611.8,160.9,611.8,160.9z"/>
		<polygon fill="#3E5DAB" points="549.4,222 549.4,226.3 548.6,225.5 533.5,210.3 533.5,206 		"/>
		<polygon fill="#3E5DAB" points="645.8,206 645.8,210.3 630.6,225.5 629.8,226.3 629.8,222 		"/>
		<polygon fill="#898989" points="649.8,210.3 649.8,230.6 629.8,230.6 629.8,226.3 629.8,226.3 629.8,226.5 630.6,225.5 
			645.8,210.3 		"/>
		<polygon fill="#898989" points="549.4,226.3 549.4,230.6 529.4,230.6 529.4,210.3 533.5,210.3 548.6,225.5 549.4,226.5 
			549.4,226.3 		"/>
		<polygon fill="#3E5DAB" points="626.9,271.3 626.9,324.7 622.2,324.7 595.3,324.7 591.8,324.7 589.6,304 587.4,324.7 583.9,324.7 
			557,324.7 552.3,324.7 552.3,271.3 589.6,271.3 		"/>
		<path fill="#FFFFFF" d="M645.8,179.7V206L629.8,222v4.3l0,0v4.3v40.8h-2.9h-37.3h-37.3h-2.9v-40.8v-4.3h0v0V222L533.5,206v-26.4
			l31-17.1c0,0,7.8,8.2,25.1,8.2c17.4,0,25.1-8.2,25.1-8.2L645.8,179.7z"/>
		<path fill="#221F1F" d="M625.1,383.1c2.2,0,4,1.9,3.9,4.1l-1.9,44.8c-0.4,9.2-7.9,16.4-17.1,16.4h-41c-9.2,0-16.7-7.2-17.1-16.4
			l-1.9-44.8c-0.1-2.2,1.7-4.1,3.9-4.1h2.9h26.9h11.4h26.9H625.1z"/>
		<rect x="595.3" y="324.7" fill="#FED09F" width="26.9" height="31.9"/>
		<rect x="557" y="324.7" fill="#FED09F" width="26.9" height="31.9"/>
		<path fill="#FED09F" d="M567.5,133.3c-3.1,0-4.6-4.5-4.6-7.8c0-3.3-0.6-9,1.8-9c2.4,0,2.8,2.6,2.8,2.6v9.2v4.5
			C567.5,133,567.5,133.1,567.5,133.3L567.5,133.3z"/>
		<path fill="#FED09F" d="M611.8,132.8v-4.5v-9.2c0,0,0.4-2.6,2.8-2.6c2.4,0,1.8,5.7,1.8,9c0,3.3-1.5,7.8-4.6,7.8h0
			C611.8,133.1,611.8,133,611.8,132.8z"/>
		<path fill="#F3BC92" d="M606.5,158l5.2,2.9c0,0-8.6,6.3-22.2,6.3s-22.2-6.3-22.2-6.3l5.2-2.9l1.3-7.1c4.2,6,9.9,10.6,15.6,10.6
			c5.7,0,11.4-4.6,15.6-10.5L606.5,158z"/>
		<path fill="#FED09F" d="M611.8,128.3v4.5c0,0.2,0,0.3,0,0.5c-0.1,5.4-2.7,12.1-6.6,17.7v0c-4.2,6-9.9,10.5-15.6,10.5
			c-5.7,0-11.4-4.6-15.6-10.6c-3.8-5.5-6.4-12.2-6.6-17.7c0-0.2,0-0.3,0-0.5v-4.5l1.3,0.3l2.3-19.3c1-1.5,7.8-5.1,18.6-5.1
			c10.7,0,17.5,3.6,18.6,5.1l2.3,19.3L611.8,128.3z"/>
		<rect x="557" y="324.7" fill="#F3BC92" width="26.9" height="6.7"/>
		<rect x="595.3" y="324.7" fill="#F3BC92" width="26.9" height="6.7"/>
		<rect x="595.3" y="371.3" fill="#FFFFFF" width="26.9" height="11.8"/>
		<rect x="557" y="371.3" fill="#FFFFFF" width="26.9" height="11.8"/>
		<polygon fill="#3E5DAB" points="623.9,356.6 623.9,371.3 622.2,371.3 595.3,371.3 593.6,371.3 593.6,356.6 595.3,356.6 
			622.2,356.6 		"/>
		<polygon fill="#3E5DAB" points="585.7,356.6 585.7,371.3 583.9,371.3 557,371.3 555.3,371.3 555.3,356.6 557,356.6 583.9,356.6 		
			"/>
		<path fill="#5D2F10" d="M611.8,119.2v9.2l-1.3,0.3l-2.3-19.3c-1-1.5-7.8-5.1-18.6-5.1c-10.7,0-17.5,3.6-18.6,5.1l-2.3,19.3
			l-1.3-0.3v-9.2v-13.8c0-2.7,1-5.1,2.6-7.1h0c1.3-1.7,2.1-4,2.6-5.9c0.6-2.3,2.7-3.8,5.1-3.6c5.2,0.5,13.2,0.5,18.6,1.4
			c5.5,1,11.8,7.1,13,8.1c1.4,1.2,2.6,4.4,2.6,7.1V119.2z"/>
		<path fill="#3E5DAB" d="M611.8,160.9l3,1.6c0,0-7.7,8.2-25.1,8.2c-17.4,0-25.1-8.2-25.1-8.2l3-1.6c0,0,8.6,6.3,22.2,6.3
			S611.8,160.9,611.8,160.9z"/>
		<polygon fill="#3E5DAB" points="549.4,222 549.4,226.3 548.6,225.5 533.5,210.3 533.5,206 		"/>
		<polygon fill="#3E5DAB" points="645.8,206 645.8,210.3 630.6,225.5 629.8,226.3 629.8,222 		"/>
		<polygon fill="#898989" points="649.8,210.3 649.8,230.6 629.8,230.6 629.8,226.3 629.8,226.3 629.8,226.5 630.6,225.5 
			645.8,210.3 		"/>
		<polygon fill="#898989" points="549.4,226.3 549.4,230.6 529.4,230.6 529.4,210.3 533.5,210.3 548.6,225.5 549.4,226.5 
			549.4,226.3 		"/>
		<polygon fill="#3E5DAB" points="626.9,271.3 626.9,324.7 622.2,324.7 595.3,324.7 591.8,324.7 589.6,304 587.4,324.7 583.9,324.7 
			557,324.7 552.3,324.7 552.3,271.3 589.6,271.3 		"/>
		<path fill="#F2F2F2" d="M645.8,179.7V206L629.8,222v4.3l0,0v4.3v40.8h-2.9h-37.3h-37.3h-2.9v-40.8v-4.3h0v0V222L533.5,206v-26.4
			l31-17.1c0,0,7.8,8.2,25.1,8.2c17.4,0,25.1-8.2,25.1-8.2L645.8,179.7z"/>
		<path fill="#221F1F" d="M625.1,383.1c2.2,0,4,1.9,3.9,4.1l-1.9,44.8c-0.4,9.2-7.9,16.4-17.1,16.4h-41c-9.2,0-16.7-7.2-17.1-16.4
			l-1.9-44.8c-0.1-2.2,1.7-4.1,3.9-4.1h2.9h26.9h11.4h26.9H625.1z"/>
		<rect x="595.3" y="324.7" fill="#FED09F" width="26.9" height="31.9"/>
		<rect x="557" y="324.7" fill="#FED09F" width="26.9" height="31.9"/>
		<path fill="#FED09F" d="M567.5,133.3c-3.1,0-4.6-4.5-4.6-7.8c0-3.3-0.6-9,1.8-9c2.4,0,2.8,2.6,2.8,2.6v9.2v4.5
			C567.5,133,567.5,133.1,567.5,133.3L567.5,133.3z"/>
		<path fill="#FED09F" d="M611.8,132.8v-4.5v-9.2c0,0,0.4-2.6,2.8-2.6c2.4,0,1.8,5.7,1.8,9c0,3.3-1.5,7.8-4.6,7.8h0
			C611.8,133.1,611.8,133,611.8,132.8z"/>
		<path fill="#F3BC92" d="M606.5,158l5.2,2.9c0,0-8.6,6.3-22.2,6.3s-22.2-6.3-22.2-6.3l5.2-2.9l1.3-7.1c4.2,6,9.9,10.6,15.6,10.6
			c5.7,0,11.4-4.6,15.6-10.5L606.5,158z"/>
		<path fill="#FED09F" d="M611.8,128.3v4.5c0,0.2,0,0.3,0,0.5c-0.1,5.4-2.7,12.1-6.6,17.7v0c-4.2,6-9.9,10.5-15.6,10.5
			c-5.7,0-11.4-4.6-15.6-10.6c-3.8-5.5-6.4-12.2-6.6-17.7c0-0.2,0-0.3,0-0.5v-4.5l1.3,0.3l2.3-19.3c1-1.5,7.8-5.1,18.6-5.1
			c10.7,0,17.5,3.6,18.6,5.1l2.3,19.3L611.8,128.3z"/>
		<rect x="557" y="324.7" fill="#F3BC92" width="26.9" height="6.7"/>
		<rect x="595.3" y="324.7" fill="#F3BC92" width="26.9" height="6.7"/>
		<g>
			<polygon fill="#DEDDDD" points="645.8,179.7 634.6,173.5 544.6,173.5 533.5,179.7 533.5,184 645.8,184 			"/>
			<rect x="533.5" y="193.8" fill="#DEDDDD" width="112.3" height="10.5"/>
			<polygon fill="#DEDDDD" points="549.4,222 549.4,224.5 629.8,224.5 629.8,222 637.8,214 541.5,214 			"/>
			<rect x="549.4" y="234.3" fill="#DEDDDD" width="80.4" height="10.5"/>
			<rect x="549.4" y="254.5" fill="#DEDDDD" width="80.4" height="10.5"/>
		</g>
	</g>
	<g>
		<rect x="816.1" y="371.3" fill="#ED1C24" width="26.9" height="11.8"/>
		<rect x="777.8" y="371.3" fill="#ED1C24" width="26.9" height="11.8"/>
		<polygon fill="#F7EC21" points="844.7,356.6 844.7,371.3 843,371.3 816.1,371.3 814.3,371.3 814.3,356.6 816.1,356.6 843,356.6 		
			"/>
		<polygon fill="#F7EC21" points="806.4,356.6 806.4,371.3 804.7,371.3 777.8,371.3 776.1,371.3 776.1,356.6 777.8,356.6 
			804.7,356.6 		"/>
		<path fill="#5D2F10" d="M832.5,119.2v9.2l-1.3,0.3l-2.3-19.3c-1-1.5-7.8-5.1-18.6-5.1c-10.7,0-17.5,3.6-18.6,5.1l-2.3,19.3
			l-1.3-0.3v-9.2v-13.8c0-2.7,1-5.1,2.6-7.1h0c1.3-1.7,2.1-4,2.6-5.9c0.6-2.3,2.7-3.8,5.1-3.6c5.2,0.5,13.2,0.5,18.6,1.4
			c5.5,1,11.8,7.1,13,8.1c1.4,1.2,2.6,4.4,2.6,7.1V119.2z"/>
		<path fill="#F7EC21" d="M832.5,160.9l3,1.6c0,0-7.7,8.2-25.1,8.2c-17.4,0-25.1-8.2-25.1-8.2l3-1.6c0,0,8.6,6.3,22.2,6.3
			S832.5,160.9,832.5,160.9z"/>
		<polygon fill="#F7EC21" points="770.2,222 770.2,226.3 769.4,225.5 754.2,210.3 754.2,206 		"/>
		<polygon fill="#F7EC21" points="866.5,206 866.5,210.3 851.4,225.5 850.6,226.3 850.6,222 		"/>
		<polygon fill="#898989" points="870.6,210.3 870.6,230.6 850.6,230.6 850.6,226.3 850.6,226.3 850.6,226.5 851.4,225.5 
			866.5,210.3 		"/>
		<polygon fill="#898989" points="770.2,226.3 770.2,230.6 750.2,230.6 750.2,210.3 754.2,210.3 769.4,225.5 770.2,226.5 
			770.2,226.3 		"/>
		<polygon fill="#F7EC21" points="847.7,271.3 847.7,324.7 843,324.7 816.1,324.7 812.6,324.7 810.4,304 808.2,324.7 804.7,324.7 
			777.8,324.7 773.1,324.7 773.1,271.3 810.4,271.3 		"/>
		<path fill="#ED1C24" d="M866.5,179.7V206L850.6,222v4.3l0,0v4.3v40.8h-2.9h-37.3h-37.3h-2.9v-40.8v-4.3h0v0V222L754.2,206v-26.4
			l31-17.1c0,0,7.8,8.2,25.1,8.2c17.4,0,25.1-8.2,25.1-8.2L866.5,179.7z"/>
		<path fill="#221F1F" d="M845.9,383.1c2.2,0,4,1.9,3.9,4.1l-1.9,44.8c-0.4,9.2-7.9,16.4-17.1,16.4h-41c-9.2,0-16.7-7.2-17.1-16.4
			l-1.9-44.8c-0.1-2.2,1.7-4.1,3.9-4.1h2.9h26.9h11.4H843H845.9z"/>
		<rect x="816.1" y="324.7" fill="#FED09F" width="26.9" height="31.9"/>
		<rect x="777.8" y="324.7" fill="#FED09F" width="26.9" height="31.9"/>
		<path fill="#FED09F" d="M788.2,133.3c-3.1,0-4.6-4.5-4.6-7.8c0-3.3-0.6-9,1.8-9c2.4,0,2.8,2.6,2.8,2.6v9.2v4.5
			C788.2,133,788.2,133.1,788.2,133.3L788.2,133.3z"/>
		<path fill="#FED09F" d="M832.5,132.8v-4.5v-9.2c0,0,0.4-2.6,2.8-2.6c2.4,0,1.8,5.7,1.8,9c0,3.3-1.5,7.8-4.6,7.8h0
			C832.5,133.1,832.5,133,832.5,132.8z"/>
		<path fill="#F3BC92" d="M827.3,158l5.2,2.9c0,0-8.6,6.3-22.2,6.3s-22.2-6.3-22.2-6.3l5.2-2.9l1.3-7.1c4.2,6,9.9,10.6,15.6,10.6
			c5.7,0,11.4-4.6,15.6-10.5L827.3,158z"/>
		<path fill="#FED09F" d="M832.5,128.3v4.5c0,0.2,0,0.3,0,0.5c-0.1,5.4-2.7,12.1-6.6,17.7v0c-4.2,6-9.9,10.5-15.6,10.5
			c-5.7,0-11.4-4.6-15.6-10.6c-3.8-5.5-6.4-12.2-6.6-17.7c0-0.2,0-0.3,0-0.5v-4.5l1.3,0.3l2.3-19.3c1-1.5,7.8-5.1,18.6-5.1
			c10.7,0,17.5,3.6,18.6,5.1l2.3,19.3L832.5,128.3z"/>
		<rect x="777.8" y="324.7" fill="#F3BC92" width="26.9" height="6.7"/>
		<rect x="816.1" y="324.7" fill="#F3BC92" width="26.9" height="6.7"/>
		<rect x="816.1" y="371.3" fill="#ED1C24" width="26.9" height="11.8"/>
		<rect x="777.8" y="371.3" fill="#ED1C24" width="26.9" height="11.8"/>
		<polygon fill="#F7EC21" points="844.7,356.6 844.7,371.3 843,371.3 816.1,371.3 814.3,371.3 814.3,356.6 816.1,356.6 843,356.6 		
			"/>
		<polygon fill="#F7EC21" points="806.4,356.6 806.4,371.3 804.7,371.3 777.8,371.3 776.1,371.3 776.1,356.6 777.8,356.6 
			804.7,356.6 		"/>
		<path fill="#5D2F10" d="M832.5,119.2v9.2l-1.3,0.3l-2.3-19.3c-1-1.5-7.8-5.1-18.6-5.1c-10.7,0-17.5,3.6-18.6,5.1l-2.3,19.3
			l-1.3-0.3v-9.2v-13.8c0-2.7,1-5.1,2.6-7.1h0c1.3-1.7,2.1-4,2.6-5.9c0.6-2.3,2.7-3.8,5.1-3.6c5.2,0.5,13.2,0.5,18.6,1.4
			c5.5,1,11.8,7.1,13,8.1c1.4,1.2,2.6,4.4,2.6,7.1V119.2z"/>
		<path fill="#F7EC21" d="M832.5,160.9l3,1.6c0,0-7.7,8.2-25.1,8.2c-17.4,0-25.1-8.2-25.1-8.2l3-1.6c0,0,8.6,6.3,22.2,6.3
			S832.5,160.9,832.5,160.9z"/>
		<polygon fill="#F7EC21" points="770.2,222 770.2,226.3 769.4,225.5 754.2,210.3 754.2,206 		"/>
		<polygon fill="#F7EC21" points="866.5,206 866.5,210.3 851.4,225.5 850.6,226.3 850.6,222 		"/>
		<polygon fill="#898989" points="870.6,210.3 870.6,230.6 850.6,230.6 850.6,226.3 850.6,226.3 850.6,226.5 851.4,225.5 
			866.5,210.3 		"/>
		<polygon fill="#898989" points="770.2,226.3 770.2,230.6 750.2,230.6 750.2,210.3 754.2,210.3 769.4,225.5 770.2,226.5 
			770.2,226.3 		"/>
		<polygon fill="#F7EC21" points="847.7,271.3 847.7,324.7 843,324.7 816.1,324.7 812.6,324.7 810.4,304 808.2,324.7 804.7,324.7 
			777.8,324.7 773.1,324.7 773.1,271.3 810.4,271.3 		"/>
		<path fill="#ED1C24" d="M866.5,179.7V206L850.6,222v4.3l0,0v4.3v40.8h-2.9h-37.3h-37.3h-2.9v-40.8v-4.3h0v0V222L754.2,206v-26.4
			l31-17.1c0,0,7.8,8.2,25.1,8.2c17.4,0,25.1-8.2,25.1-8.2L866.5,179.7z"/>
		<path fill="#221F1F" d="M845.9,383.1c2.2,0,4,1.9,3.9,4.1l-1.9,44.8c-0.4,9.2-7.9,16.4-17.1,16.4h-41c-9.2,0-16.7-7.2-17.1-16.4
			l-1.9-44.8c-0.1-2.2,1.7-4.1,3.9-4.1h2.9h26.9h11.4H843H845.9z"/>
		<rect x="816.1" y="324.7" fill="#FED09F" width="26.9" height="31.9"/>
		<rect x="777.8" y="324.7" fill="#FED09F" width="26.9" height="31.9"/>
		<path fill="#FED09F" d="M788.2,133.3c-3.1,0-4.6-4.5-4.6-7.8c0-3.3-0.6-9,1.8-9c2.4,0,2.8,2.6,2.8,2.6v9.2v4.5
			C788.2,133,788.2,133.1,788.2,133.3L788.2,133.3z"/>
		<path fill="#FED09F" d="M832.5,132.8v-4.5v-9.2c0,0,0.4-2.6,2.8-2.6c2.4,0,1.8,5.7,1.8,9c0,3.3-1.5,7.8-4.6,7.8h0
			C832.5,133.1,832.5,133,832.5,132.8z"/>
		<path fill="#F3BC92" d="M827.3,158l5.2,2.9c0,0-8.6,6.3-22.2,6.3s-22.2-6.3-22.2-6.3l5.2-2.9l1.3-7.1c4.2,6,9.9,10.6,15.6,10.6
			c5.7,0,11.4-4.6,15.6-10.5L827.3,158z"/>
		<path fill="#FED09F" d="M832.5,128.3v4.5c0,0.2,0,0.3,0,0.5c-0.1,5.4-2.7,12.1-6.6,17.7v0c-4.2,6-9.9,10.5-15.6,10.5
			c-5.7,0-11.4-4.6-15.6-10.6c-3.8-5.5-6.4-12.2-6.6-17.7c0-0.2,0-0.3,0-0.5v-4.5l1.3,0.3l2.3-19.3c1-1.5,7.8-5.1,18.6-5.1
			c10.7,0,17.5,3.6,18.6,5.1l2.3,19.3L832.5,128.3z"/>
		<rect x="777.8" y="324.7" fill="#F3BC92" width="26.9" height="6.7"/>
		<rect x="816.1" y="324.7" fill="#F3BC92" width="26.9" height="6.7"/>
		<rect x="816.1" y="371.3" fill="#ED1C24" width="26.9" height="11.8"/>
		<rect x="777.8" y="371.3" fill="#ED1C24" width="26.9" height="11.8"/>
		<polygon fill="#F7EC21" points="844.7,356.6 844.7,371.3 843,371.3 816.1,371.3 814.3,371.3 814.3,356.6 816.1,356.6 843,356.6 		
			"/>
		<polygon fill="#F7EC21" points="806.4,356.6 806.4,371.3 804.7,371.3 777.8,371.3 776.1,371.3 776.1,356.6 777.8,356.6 
			804.7,356.6 		"/>
		<path fill="#5D2F10" d="M832.5,119.2v9.2l-1.3,0.3l-2.3-19.3c-1-1.5-7.8-5.1-18.6-5.1c-10.7,0-17.5,3.6-18.6,5.1l-2.3,19.3
			l-1.3-0.3v-9.2v-13.8c0-2.7,1-5.1,2.6-7.1h0c1.3-1.7,2.1-4,2.6-5.9c0.6-2.3,2.7-3.8,5.1-3.6c5.2,0.5,13.2,0.5,18.6,1.4
			c5.5,1,11.8,7.1,13,8.1c1.4,1.2,2.6,4.4,2.6,7.1V119.2z"/>
		<path fill="#F7EC21" d="M832.5,160.9l3,1.6c0,0-7.7,8.2-25.1,8.2c-17.4,0-25.1-8.2-25.1-8.2l3-1.6c0,0,8.6,6.3,22.2,6.3
			S832.5,160.9,832.5,160.9z"/>
		<polygon fill="#3E5DAB" points="770.2,222 770.2,226.3 769.4,225.5 754.2,210.3 754.2,206 		"/>
		<polygon fill="#3E5DAB" points="866.5,206 866.5,210.3 851.4,225.5 850.6,226.3 850.6,222 		"/>
		<polygon fill="#898989" points="870.6,210.3 870.6,230.6 850.6,230.6 850.6,226.3 850.6,226.3 850.6,226.5 851.4,225.5 
			866.5,210.3 		"/>
		<polygon fill="#898989" points="770.2,226.3 770.2,230.6 750.2,230.6 750.2,210.3 754.2,210.3 769.4,225.5 770.2,226.5 
			770.2,226.3 		"/>
		<polygon fill="#ED1C24" points="847.7,271.3 847.7,324.7 843,324.7 816.1,324.7 812.6,324.7 810.4,304 808.2,324.7 804.7,324.7 
			777.8,324.7 773.1,324.7 773.1,271.3 810.4,271.3 		"/>
		<path fill="#ED1C24" d="M866.5,179.7V206L850.6,222v4.3l0,0v4.3v40.8h-2.9h-37.3h-37.3h-2.9v-40.8v-4.3h0v0V222L754.2,206v-26.4
			l31-17.1c0,0,7.8,8.2,25.1,8.2c17.4,0,25.1-8.2,25.1-8.2L866.5,179.7z"/>
		<path fill="#221F1F" d="M845.9,383.1c2.2,0,4,1.9,3.9,4.1l-1.9,44.8c-0.4,9.2-7.9,16.4-17.1,16.4h-41c-9.2,0-16.7-7.2-17.1-16.4
			l-1.9-44.8c-0.1-2.2,1.7-4.1,3.9-4.1h2.9h26.9h11.4H843H845.9z"/>
		<rect x="816.1" y="324.7" fill="#FED09F" width="26.9" height="31.9"/>
		<rect x="777.8" y="324.7" fill="#FED09F" width="26.9" height="31.9"/>
		<path fill="#FED09F" d="M788.2,133.3c-3.1,0-4.6-4.5-4.6-7.8c0-3.3-0.6-9,1.8-9c2.4,0,2.8,2.6,2.8,2.6v9.2v4.5
			C788.2,133,788.2,133.1,788.2,133.3L788.2,133.3z"/>
		<path fill="#FED09F" d="M832.5,132.8v-4.5v-9.2c0,0,0.4-2.6,2.8-2.6c2.4,0,1.8,5.7,1.8,9c0,3.3-1.5,7.8-4.6,7.8h0
			C832.5,133.1,832.5,133,832.5,132.8z"/>
		<path fill="#F3BC92" d="M827.3,158l5.2,2.9c0,0-8.6,6.3-22.2,6.3s-22.2-6.3-22.2-6.3l5.2-2.9l1.3-7.1c4.2,6,9.9,10.6,15.6,10.6
			c5.7,0,11.4-4.6,15.6-10.5L827.3,158z"/>
		<path fill="#FED09F" d="M832.5,128.3v4.5c0,0.2,0,0.3,0,0.5c-0.1,5.4-2.7,12.1-6.6,17.7v0c-4.2,6-9.9,10.5-15.6,10.5
			c-5.7,0-11.4-4.6-15.6-10.6c-3.8-5.5-6.4-12.2-6.6-17.7c0-0.2,0-0.3,0-0.5v-4.5l1.3,0.3l2.3-19.3c1-1.5,7.8-5.1,18.6-5.1
			c10.7,0,17.5,3.6,18.6,5.1l2.3,19.3L832.5,128.3z"/>
		<rect x="777.8" y="324.7" fill="#F3BC92" width="26.9" height="6.7"/>
		<rect x="816.1" y="324.7" fill="#F3BC92" width="26.9" height="6.7"/>
		<rect x="770.2" y="203.3" fill="#F7EC21" width="2.9" height="68"/>
		<rect x="776.3" y="271.3" fill="#3E5DAB" width="2.9" height="53.4"/>
		<rect x="841.5" y="271.3" fill="#3E5DAB" width="2.9" height="53.4"/>
		<rect x="847.7" y="203.3" fill="#F7EC21" width="2.9" height="68"/>
	</g>
	<g>
		<rect x="1036.8" y="371.3" fill="#ED1C24" width="26.9" height="11.8"/>
		<rect x="998.6" y="371.3" fill="#ED1C24" width="26.9" height="11.8"/>
		<polygon fill="#294D24" points="1065.5,356.6 1065.5,371.3 1063.7,371.3 1036.8,371.3 1035.1,371.3 1035.1,356.6 1036.8,356.6 
			1063.7,356.6 		"/>
		<polygon fill="#294D24" points="1027.2,356.6 1027.2,371.3 1025.5,371.3 998.6,371.3 996.8,371.3 996.8,356.6 998.6,356.6 
			1025.5,356.6 		"/>
		<path fill="#5D2F10" d="M1053.3,119.2v9.2l-1.3,0.3l-2.3-19.3c-1-1.5-7.8-5.1-18.6-5.1c-10.7,0-17.5,3.6-18.6,5.1l-2.3,19.3
			l-1.3-0.3v-9.2v-13.8c0-2.7,1-5.1,2.6-7.1h0c1.3-1.7,2.1-4,2.6-5.9c0.6-2.3,2.7-3.8,5.1-3.6c5.2,0.5,13.2,0.5,18.6,1.4
			c5.5,1,11.8,7.1,13,8.1c1.4,1.2,2.6,4.4,2.6,7.1V119.2z"/>
		<path fill="#294D24" d="M1053.3,160.9l3,1.6c0,0-7.7,8.2-25.1,8.2c-17.4,0-25.1-8.2-25.1-8.2l3-1.6c0,0,8.6,6.3,22.2,6.3
			C1044.7,167.3,1053.3,160.9,1053.3,160.9z"/>
		<polygon fill="#294D24" points="990.9,222 990.9,226.3 990.1,225.5 975,210.3 975,206 		"/>
		<polygon fill="#294D24" points="1087.3,206 1087.3,210.3 1072.2,225.5 1071.4,226.3 1071.4,222 		"/>
		<polygon fill="#898989" points="1091.4,210.3 1091.4,230.6 1071.3,230.6 1071.3,226.3 1071.4,226.3 1071.4,226.5 1072.2,225.5 
			1087.3,210.3 		"/>
		<polygon fill="#898989" points="990.9,226.3 990.9,230.6 970.9,230.6 970.9,210.3 975,210.3 990.1,225.5 990.9,226.5 990.9,226.3 
					"/>
		<polygon fill="#294D24" points="1068.4,271.3 1068.4,324.7 1063.7,324.7 1036.8,324.7 1033.4,324.7 1031.1,304 1028.9,324.7 
			1025.5,324.7 998.6,324.7 993.8,324.7 993.8,271.3 1031.1,271.3 		"/>
		<path fill="#ED1C24" d="M1087.3,179.7V206l-15.9,15.9v4.3l0,0v4.3v40.8h-2.9h-37.3h-37.3h-2.9v-40.8v-4.3h0v0V222L975,206v-26.4
			l31-17.1c0,0,7.8,8.2,25.1,8.2c17.4,0,25.1-8.2,25.1-8.2L1087.3,179.7z"/>
		<path fill="#221F1F" d="M1066.7,383.1c2.2,0,4,1.9,3.9,4.1l-1.9,44.8c-0.4,9.2-7.9,16.4-17.1,16.4h-41c-9.2,0-16.7-7.2-17.1-16.4
			l-1.9-44.8c-0.1-2.2,1.7-4.1,3.9-4.1h2.9h26.9h11.4h26.9H1066.7z"/>
		<rect x="1036.8" y="324.7" fill="#FED09F" width="26.9" height="31.9"/>
		<rect x="998.6" y="324.7" fill="#FED09F" width="26.9" height="31.9"/>
		<path fill="#FED09F" d="M1009,133.3c-3.1,0-4.6-4.5-4.6-7.8c0-3.3-0.6-9,1.8-9c2.4,0,2.8,2.6,2.8,2.6v9.2v4.5
			C1009,133,1009,133.1,1009,133.3L1009,133.3z"/>
		<path fill="#FED09F" d="M1053.3,132.8v-4.5v-9.2c0,0,0.4-2.6,2.8-2.6s1.8,5.7,1.8,9c0,3.3-1.5,7.8-4.6,7.8h0
			C1053.3,133.1,1053.3,133,1053.3,132.8z"/>
		<path fill="#F3BC92" d="M1048.1,158l5.2,2.9c0,0-8.6,6.3-22.2,6.3c-13.6,0-22.2-6.3-22.2-6.3l5.2-2.9l1.3-7.1
			c4.2,6,9.9,10.6,15.6,10.6c5.7,0,11.4-4.6,15.6-10.5L1048.1,158z"/>
		<path fill="#FED09F" d="M1053.3,128.3v4.5c0,0.2,0,0.3,0,0.5c-0.1,5.4-2.7,12.1-6.6,17.7v0c-4.2,6-9.9,10.5-15.6,10.5
			c-5.7,0-11.4-4.6-15.6-10.6c-3.8-5.5-6.4-12.2-6.6-17.7c0-0.2,0-0.3,0-0.5v-4.5l1.3,0.3l2.3-19.3c1-1.5,7.8-5.1,18.6-5.1
			c10.7,0,17.5,3.6,18.6,5.1l2.3,19.3L1053.3,128.3z"/>
		<rect x="998.6" y="324.7" fill="#F3BC92" width="26.9" height="6.7"/>
		<rect x="1036.8" y="324.7" fill="#F3BC92" width="26.9" height="6.7"/>
		<rect x="1036.8" y="371.3" fill="#ED1C24" width="26.9" height="11.8"/>
		<rect x="998.6" y="371.3" fill="#ED1C24" width="26.9" height="11.8"/>
		<polygon fill="#294D24" points="1065.5,356.6 1065.5,371.3 1063.7,371.3 1036.8,371.3 1035.1,371.3 1035.1,356.6 1036.8,356.6 
			1063.7,356.6 		"/>
		<polygon fill="#294D24" points="1027.2,356.6 1027.2,371.3 1025.5,371.3 998.6,371.3 996.8,371.3 996.8,356.6 998.6,356.6 
			1025.5,356.6 		"/>
		<path fill="#5D2F10" d="M1053.3,119.2v9.2l-1.3,0.3l-2.3-19.3c-1-1.5-7.8-5.1-18.6-5.1c-10.7,0-17.5,3.6-18.6,5.1l-2.3,19.3
			l-1.3-0.3v-9.2v-13.8c0-2.7,1-5.1,2.6-7.1h0c1.3-1.7,2.1-4,2.6-5.9c0.6-2.3,2.7-3.8,5.1-3.6c5.2,0.5,13.2,0.5,18.6,1.4
			c5.5,1,11.8,7.1,13,8.1c1.4,1.2,2.6,4.4,2.6,7.1V119.2z"/>
		<path fill="#294D24" d="M1053.3,160.9l3,1.6c0,0-7.7,8.2-25.1,8.2c-17.4,0-25.1-8.2-25.1-8.2l3-1.6c0,0,8.6,6.3,22.2,6.3
			C1044.7,167.3,1053.3,160.9,1053.3,160.9z"/>
		<polygon fill="#294D24" points="990.9,222 990.9,226.3 990.1,225.5 975,210.3 975,206 		"/>
		<polygon fill="#294D24" points="1087.3,206 1087.3,210.3 1072.2,225.5 1071.4,226.3 1071.4,222 		"/>
		<polygon fill="#898989" points="1091.4,210.3 1091.4,230.6 1071.3,230.6 1071.3,226.3 1071.4,226.3 1071.4,226.5 1072.2,225.5 
			1087.3,210.3 		"/>
		<polygon fill="#898989" points="990.9,226.3 990.9,230.6 970.9,230.6 970.9,210.3 975,210.3 990.1,225.5 990.9,226.5 990.9,226.3 
					"/>
		<polygon fill="#294D24" points="1068.4,271.3 1068.4,324.7 1063.7,324.7 1036.8,324.7 1033.4,324.7 1031.1,304 1028.9,324.7 
			1025.5,324.7 998.6,324.7 993.8,324.7 993.8,271.3 1031.1,271.3 		"/>
		<path fill="#ED1C24" d="M1087.3,179.7V206l-15.9,15.9v4.3l0,0v4.3v40.8h-2.9h-37.3h-37.3h-2.9v-40.8v-4.3h0v0V222L975,206v-26.4
			l31-17.1c0,0,7.8,8.2,25.1,8.2c17.4,0,25.1-8.2,25.1-8.2L1087.3,179.7z"/>
		<path fill="#221F1F" d="M1066.7,383.1c2.2,0,4,1.9,3.9,4.1l-1.9,44.8c-0.4,9.2-7.9,16.4-17.1,16.4h-41c-9.2,0-16.7-7.2-17.1-16.4
			l-1.9-44.8c-0.1-2.2,1.7-4.1,3.9-4.1h2.9h26.9h11.4h26.9H1066.7z"/>
		<rect x="1036.8" y="324.7" fill="#FED09F" width="26.9" height="31.9"/>
		<rect x="998.6" y="324.7" fill="#FED09F" width="26.9" height="31.9"/>
		<path fill="#FED09F" d="M1009,133.3c-3.1,0-4.6-4.5-4.6-7.8c0-3.3-0.6-9,1.8-9c2.4,0,2.8,2.6,2.8,2.6v9.2v4.5
			C1009,133,1009,133.1,1009,133.3L1009,133.3z"/>
		<path fill="#FED09F" d="M1053.3,132.8v-4.5v-9.2c0,0,0.4-2.6,2.8-2.6s1.8,5.7,1.8,9c0,3.3-1.5,7.8-4.6,7.8h0
			C1053.3,133.1,1053.3,133,1053.3,132.8z"/>
		<path fill="#F3BC92" d="M1048.1,158l5.2,2.9c0,0-8.6,6.3-22.2,6.3c-13.6,0-22.2-6.3-22.2-6.3l5.2-2.9l1.3-7.1
			c4.2,6,9.9,10.6,15.6,10.6c5.7,0,11.4-4.6,15.6-10.5L1048.1,158z"/>
		<path fill="#FED09F" d="M1053.3,128.3v4.5c0,0.2,0,0.3,0,0.5c-0.1,5.4-2.7,12.1-6.6,17.7v0c-4.2,6-9.9,10.5-15.6,10.5
			c-5.7,0-11.4-4.6-15.6-10.6c-3.8-5.5-6.4-12.2-6.6-17.7c0-0.2,0-0.3,0-0.5v-4.5l1.3,0.3l2.3-19.3c1-1.5,7.8-5.1,18.6-5.1
			c10.7,0,17.5,3.6,18.6,5.1l2.3,19.3L1053.3,128.3z"/>
		<rect x="998.6" y="324.7" fill="#F3BC92" width="26.9" height="6.7"/>
		<rect x="1036.8" y="324.7" fill="#F3BC92" width="26.9" height="6.7"/>
		<path fill="#294D24" d="M1009,160.9l-34,18.7v4.9l37.2-21.1C1010,162,1009,160.9,1009,160.9z"/>
		<path fill="#294D24" d="M1053.3,160.9l34,18.7v4.9l-37.2-21.1C1052.2,162,1053.3,160.9,1053.3,160.9z"/>
		<rect x="1061.6" y="271.3" fill="#ED1C24" width="4.2" height="53.4"/>
		<rect x="996.5" y="271.3" fill="#ED1C24" width="4.2" height="53.4"/>
	</g>
	<g>
		<rect x="1257.6" y="371.3" fill="#FCB216" width="26.9" height="11.8"/>
		<rect x="1219.3" y="371.3" fill="#FCB216" width="26.9" height="11.8"/>
		<polygon fill="#3F59A8" points="1286.2,356.6 1286.2,371.3 1284.5,371.3 1257.6,371.3 1255.9,371.3 1255.9,356.6 1257.6,356.6 
			1284.5,356.6 		"/>
		<polygon fill="#3F59A8" points="1248,356.6 1248,371.3 1246.2,371.3 1219.3,371.3 1217.6,371.3 1217.6,356.6 1219.3,356.6 
			1246.2,356.6 		"/>
		<path fill="#5D2F10" d="M1274.1,119.2v9.2l-1.3,0.3l-2.3-19.3c-1-1.5-7.8-5.1-18.6-5.1s-17.5,3.6-18.6,5.1l-2.3,19.3l-1.3-0.3
			v-9.2v-13.8c0-2.7,1-5.1,2.6-7.1h0c1.3-1.7,2.1-4,2.6-5.9c0.6-2.3,2.7-3.8,5.1-3.6c5.2,0.5,13.2,0.5,18.6,1.4
			c5.5,1,11.8,7.1,13,8.1c1.4,1.2,2.6,4.4,2.6,7.1V119.2z"/>
		<path fill="#3F59A8" d="M1274.1,160.9l3,1.6c0,0-7.7,8.2-25.1,8.2c-17.4,0-25.1-8.2-25.1-8.2l3-1.6c0,0,8.6,6.3,22.2,6.3
			C1265.5,167.3,1274.1,160.9,1274.1,160.9z"/>
		<polygon fill="#3F59A8" points="1211.7,222 1211.7,226.3 1210.9,225.5 1195.7,210.3 1195.7,206 		"/>
		<polygon fill="#3F59A8" points="1308.1,206 1308.1,210.3 1292.9,225.5 1292.1,226.3 1292.1,222 		"/>
		<polygon fill="#898989" points="1312.1,210.3 1312.1,230.6 1292.1,230.6 1292.1,226.3 1292.1,226.3 1292.1,226.5 1292.9,225.5 
			1308.1,210.3 		"/>
		<polygon fill="#898989" points="1211.7,226.3 1211.7,230.6 1191.7,230.6 1191.7,210.3 1195.7,210.3 1210.9,225.5 1211.7,226.5 
			1211.7,226.3 		"/>
		<polygon fill="#3F59A8" points="1289.2,271.3 1289.2,324.7 1284.5,324.7 1257.6,324.7 1254.1,324.7 1251.9,304 1249.7,324.7 
			1246.2,324.7 1219.3,324.7 1214.6,324.7 1214.6,271.3 1251.9,271.3 		"/>
		<path fill="#FCB216" d="M1308.1,179.7V206l-15.9,15.9v4.3l0,0v4.3v40.8h-2.9h-37.3h-37.3h-2.9v-40.8v-4.3h0v0V222l-15.9-15.9
			v-26.4l31-17.1c0,0,7.8,8.2,25.1,8.2c17.4,0,25.1-8.2,25.1-8.2L1308.1,179.7z"/>
		<path fill="#221F1F" d="M1287.4,383.1c2.2,0,4,1.9,3.9,4.1l-1.9,44.8c-0.4,9.2-7.9,16.4-17.1,16.4h-41c-9.2,0-16.7-7.2-17.1-16.4
			l-1.9-44.8c-0.1-2.2,1.7-4.1,3.9-4.1h2.9h26.9h11.4h26.9H1287.4z"/>
		<rect x="1257.6" y="324.7" fill="#FED09F" width="26.9" height="31.9"/>
		<rect x="1219.3" y="324.7" fill="#FED09F" width="26.9" height="31.9"/>
		<path fill="#FED09F" d="M1229.8,133.3c-3.1,0-4.6-4.5-4.6-7.8c0-3.3-0.6-9,1.8-9c2.4,0,2.8,2.6,2.8,2.6v9.2v4.5
			C1229.7,133,1229.7,133.1,1229.8,133.3L1229.8,133.3z"/>
		<path fill="#FED09F" d="M1274.1,132.8v-4.5v-9.2c0,0,0.4-2.6,2.8-2.6s1.8,5.7,1.8,9c0,3.3-1.5,7.8-4.6,7.8h0
			C1274.1,133.1,1274.1,133,1274.1,132.8z"/>
		<path fill="#F3BC92" d="M1268.8,158l5.2,2.9c0,0-8.6,6.3-22.2,6.3c-13.6,0-22.2-6.3-22.2-6.3l5.2-2.9l1.3-7.1
			c4.2,6,9.9,10.6,15.6,10.6s11.4-4.6,15.6-10.5L1268.8,158z"/>
		<path fill="#FED09F" d="M1274.1,128.3v4.5c0,0.2,0,0.3,0,0.5c-0.1,5.4-2.7,12.1-6.6,17.7v0c-4.2,6-9.9,10.5-15.6,10.5
			s-11.4-4.6-15.6-10.6c-3.8-5.5-6.4-12.2-6.6-17.7c0-0.2,0-0.3,0-0.5v-4.5l1.3,0.3l2.3-19.3c1-1.5,7.8-5.1,18.6-5.1
			s17.5,3.6,18.6,5.1l2.3,19.3L1274.1,128.3z"/>
		<rect x="1219.3" y="324.7" fill="#F3BC92" width="26.9" height="6.7"/>
		<rect x="1257.6" y="324.7" fill="#F3BC92" width="26.9" height="6.7"/>
		<rect x="1214.6" y="220.4" fill="#3F59A8" width="2.4" height="50.9"/>
		<rect x="1218.1" y="271.3" fill="#FFFFFF" width="2.4" height="53.4"/>
		<rect x="1283.3" y="271.3" fill="#FFFFFF" width="2.4" height="53.4"/>
		<rect x="1286.8" y="220.4" fill="#3F59A8" width="2.4" height="50.9"/>
	</g>
	<g>
		<rect x="153.8" y="814.2" fill="#F26622" width="26.9" height="11.8"/>
		<rect x="115.5" y="814.2" fill="#F26622" width="26.9" height="11.8"/>
		<polygon fill="#A21C33" points="182.4,799.5 182.4,814.2 180.7,814.2 153.8,814.2 152,814.2 152,799.5 153.8,799.5 180.7,799.5 		
			"/>
		<polygon fill="#A21C33" points="144.1,799.5 144.1,814.2 142.4,814.2 115.5,814.2 113.8,814.2 113.8,799.5 115.5,799.5 
			142.4,799.5 		"/>
		<path fill="#5D2F10" d="M170.3,562v9.2l-1.3,0.3l-2.3-19.3c-1-1.5-7.8-5.1-18.6-5.1s-17.5,3.6-18.6,5.1l-2.3,19.3l-1.3-0.3V562
			v-13.8c0-2.7,1-5.1,2.6-7.1h0c1.3-1.7,2.1-4,2.6-5.9c0.6-2.3,2.7-3.8,5.1-3.6c5.2,0.5,13.2,0.5,18.6,1.4c5.5,1,11.8,7.1,13,8.1
			c1.4,1.2,2.6,4.4,2.6,7.1V562z"/>
		<path fill="#A21C33" d="M170.3,603.8l3,1.6c0,0-7.7,8.2-25.1,8.2c-17.4,0-25.1-8.2-25.1-8.2l3-1.6c0,0,8.6,6.3,22.2,6.3
			C161.7,610.2,170.3,603.8,170.3,603.8z"/>
		<polygon fill="#A21C33" points="107.9,664.9 107.9,669.1 107.1,668.3 91.9,653.2 91.9,648.9 		"/>
		<polygon fill="#A21C33" points="204.3,648.9 204.3,653.2 189.1,668.4 188.3,669.1 188.3,664.9 		"/>
		<polygon fill="#898989" points="208.3,653.2 208.3,673.5 188.3,673.5 188.3,669.2 188.3,669.1 188.3,669.4 189.1,668.4 
			204.3,653.2 		"/>
		<polygon fill="#898989" points="107.9,669.2 107.9,673.5 87.9,673.5 87.9,653.2 91.9,653.2 107.1,668.3 107.9,669.4 107.9,669.2 
					"/>
		<polygon fill="#A21C33" points="185.4,714.2 185.4,767.6 180.7,767.6 153.8,767.6 150.3,767.6 148.1,746.9 145.9,767.6 
			142.4,767.6 115.5,767.6 110.8,767.6 110.8,714.2 148.1,714.2 		"/>
		<path fill="#F26622" d="M204.3,622.6v26.4l-15.9,15.9v4.3l0,0v4.3v40.8h-2.9h-37.3h-37.3h-2.9v-40.8v-4.3h0v0v-4.3l-15.9-15.9
			v-26.4l31-17.1c0,0,7.8,8.2,25.1,8.2c17.4,0,25.1-8.2,25.1-8.2L204.3,622.6z"/>
		<path fill="#221F1F" d="M183.6,826c2.2,0,4,1.9,3.9,4.1l-1.9,44.8c-0.4,9.2-7.9,16.4-17.1,16.4h-41c-9.2,0-16.7-7.2-17.1-16.4
			l-1.9-44.8c-0.1-2.2,1.7-4.1,3.9-4.1h2.9h26.9h11.4h26.9H183.6z"/>
		<rect x="153.8" y="767.6" fill="#FED09F" width="26.9" height="31.9"/>
		<rect x="115.5" y="767.6" fill="#FED09F" width="26.9" height="31.9"/>
		<path fill="#FED09F" d="M126,576.2c-3.1,0-4.6-4.5-4.6-7.8s-0.6-9,1.8-9s2.8,2.6,2.8,2.6v9.2v4.5C125.9,575.9,125.9,576,126,576.2
			L126,576.2z"/>
		<path fill="#FED09F" d="M170.3,575.7v-4.5V562c0,0,0.4-2.6,2.8-2.6c2.4,0,1.8,5.7,1.8,9s-1.5,7.8-4.6,7.8h0
			C170.3,576,170.3,575.9,170.3,575.7z"/>
		<path fill="#F3BC92" d="M165,600.9l5.2,2.9c0,0-8.6,6.3-22.2,6.3c-13.6,0-22.2-6.3-22.2-6.3l5.2-2.9l1.3-7.1
			c4.2,6,9.9,10.6,15.6,10.6s11.4-4.6,15.6-10.5L165,600.9z"/>
		<path fill="#FED09F" d="M170.3,571.2v4.5c0,0.2,0,0.3,0,0.5c-0.1,5.4-2.7,12.1-6.6,17.7v0c-4.2,6-9.9,10.5-15.6,10.5
			s-11.4-4.6-15.6-10.6c-3.8-5.5-6.4-12.2-6.6-17.7c0-0.2,0-0.3,0-0.5v-4.5l1.3,0.3l2.3-19.3c1-1.5,7.8-5.1,18.6-5.1
			s17.5,3.6,18.6,5.1l2.3,19.3L170.3,571.2z"/>
		<rect x="115.5" y="767.6" fill="#F3BC92" width="26.9" height="6.7"/>
		<rect x="153.8" y="767.6" fill="#F3BC92" width="26.9" height="6.7"/>
		<polygon fill="#EF4623" points="148.1,714.2 148.1,659.8 188.3,677.6 188.3,714.2 		"/>
		<path fill="#EF4623" d="M107.9,655.7l40.2,17.8v-59.8c-17.4,0-25.1-8.2-25.1-8.2l-15.1,8.3V655.7z"/>
		<rect x="107.9" y="653.2" fill="#A21C33" width="2.9" height="61"/>
		<rect x="185.4" y="653.2" fill="#A21C33" width="2.9" height="61"/>
	</g>
	<g>
		<rect x="374.5" y="814.2" fill="#3C54A5" width="26.9" height="11.8"/>
		<rect x="336.3" y="814.2" fill="#3C54A5" width="26.9" height="11.8"/>
		<polygon fill="#29291D" points="403.2,799.5 403.2,814.2 401.4,814.2 374.5,814.2 372.8,814.2 372.8,799.5 374.5,799.5 
			401.4,799.5 		"/>
		<polygon fill="#29291D" points="364.9,799.5 364.9,814.2 363.2,814.2 336.3,814.2 334.5,814.2 334.5,799.5 336.3,799.5 
			363.2,799.5 		"/>
		<path fill="#5D2F10" d="M391,562v9.2l-1.3,0.3l-2.3-19.3c-1-1.5-7.8-5.1-18.6-5.1c-10.7,0-17.5,3.6-18.6,5.1l-2.3,19.3l-1.3-0.3
			V562v-13.8c0-2.7,1-5.1,2.6-7.1h0c1.3-1.7,2.1-4,2.6-5.9c0.6-2.3,2.7-3.8,5.1-3.6c5.2,0.5,13.2,0.5,18.6,1.4
			c5.5,1,11.8,7.1,13,8.1c1.4,1.2,2.6,4.4,2.6,7.1V562z"/>
		<path fill="#29291D" d="M391,603.8l3,1.6c0,0-7.7,8.2-25.1,8.2c-17.4,0-25.1-8.2-25.1-8.2l3-1.6c0,0,8.6,6.3,22.2,6.3
			S391,603.8,391,603.8z"/>
		<polygon fill="#29291D" points="328.6,664.9 328.6,669.1 327.8,668.3 312.7,653.2 312.7,648.9 		"/>
		<polygon fill="#29291D" points="425,648.9 425,653.2 409.9,668.4 409.1,669.1 409.1,664.9 		"/>
		<polygon fill="#898989" points="429.1,653.2 429.1,673.5 409.1,673.5 409.1,669.2 409.1,669.1 409.1,669.4 409.9,668.4 425,653.2 
					"/>
		<polygon fill="#898989" points="328.7,669.2 328.7,673.5 308.6,673.5 308.6,653.2 312.7,653.2 327.8,668.3 328.6,669.4 
			328.6,669.2 		"/>
		<polygon fill="#29291D" points="406.2,714.2 406.2,767.6 401.4,767.6 374.5,767.6 371.1,767.6 368.9,746.9 366.6,767.6 
			363.2,767.6 336.3,767.6 331.6,767.6 331.6,714.2 368.9,714.2 		"/>
		<path fill="#3C54A5" d="M425,622.6v26.4l-15.9,15.9v4.3l0,0v4.3v40.8h-2.9h-37.3h-37.3h-2.9v-40.8v-4.3h0v0v-4.3l-15.9-15.9v-26.4
			l31-17.1c0,0,7.8,8.2,25.1,8.2c17.4,0,25.1-8.2,25.1-8.2L425,622.6z"/>
		<path fill="#221F1F" d="M404.4,826c2.2,0,4,1.9,3.9,4.1l-1.9,44.8c-0.4,9.2-7.9,16.4-17.1,16.4h-41c-9.2,0-16.7-7.2-17.1-16.4
			l-1.9-44.8c-0.1-2.2,1.7-4.1,3.9-4.1h2.9h26.9h11.4h26.9H404.4z"/>
		<rect x="374.5" y="767.6" fill="#FED09F" width="26.9" height="31.9"/>
		<rect x="336.3" y="767.6" fill="#FED09F" width="26.9" height="31.9"/>
		<path fill="#FED09F" d="M346.7,576.2c-3.1,0-4.6-4.5-4.6-7.8s-0.6-9,1.8-9s2.8,2.6,2.8,2.6v9.2v4.5
			C346.7,575.9,346.7,576,346.7,576.2L346.7,576.2z"/>
		<path fill="#FED09F" d="M391,575.7v-4.5V562c0,0,0.4-2.6,2.8-2.6s1.8,5.7,1.8,9s-1.5,7.8-4.6,7.8h0C391,576,391,575.9,391,575.7z"
			/>
		<path fill="#F3BC92" d="M385.8,600.9l5.2,2.9c0,0-8.6,6.3-22.2,6.3s-22.2-6.3-22.2-6.3l5.2-2.9l1.3-7.1c4.2,6,9.9,10.6,15.6,10.6
			c5.7,0,11.4-4.6,15.6-10.5L385.8,600.9z"/>
		<path fill="#FED09F" d="M391,571.2v4.5c0,0.2,0,0.3,0,0.5c-0.1,5.4-2.7,12.1-6.6,17.7v0c-4.2,6-9.9,10.5-15.6,10.5
			c-5.7,0-11.4-4.6-15.6-10.6c-3.8-5.5-6.4-12.2-6.6-17.7c0-0.2,0-0.3,0-0.5v-4.5l1.3,0.3l2.3-19.3c1-1.5,7.8-5.1,18.6-5.1
			c10.7,0,17.5,3.6,18.6,5.1l2.3,19.3L391,571.2z"/>
		<rect x="336.3" y="767.6" fill="#F3BC92" width="26.9" height="6.7"/>
		<rect x="374.5" y="767.6" fill="#F3BC92" width="26.9" height="6.7"/>
		<rect x="374.5" y="814.2" fill="#3C54A5" width="26.9" height="11.8"/>
		<rect x="336.3" y="814.2" fill="#3C54A5" width="26.9" height="11.8"/>
		<polygon fill="#29291D" points="403.2,799.5 403.2,814.2 401.4,814.2 374.5,814.2 372.8,814.2 372.8,799.5 374.5,799.5 
			401.4,799.5 		"/>
		<polygon fill="#29291D" points="364.9,799.5 364.9,814.2 363.2,814.2 336.3,814.2 334.5,814.2 334.5,799.5 336.3,799.5 
			363.2,799.5 		"/>
		<path fill="#5D2F10" d="M391,562v9.2l-1.3,0.3l-2.3-19.3c-1-1.5-7.8-5.1-18.6-5.1c-10.7,0-17.5,3.6-18.6,5.1l-2.3,19.3l-1.3-0.3
			V562v-13.8c0-2.7,1-5.1,2.6-7.1h0c1.3-1.7,2.1-4,2.6-5.9c0.6-2.3,2.7-3.8,5.1-3.6c5.2,0.5,13.2,0.5,18.6,1.4
			c5.5,1,11.8,7.1,13,8.1c1.4,1.2,2.6,4.4,2.6,7.1V562z"/>
		<path fill="#29291D" d="M391,603.8l3,1.6c0,0-7.7,8.2-25.1,8.2c-17.4,0-25.1-8.2-25.1-8.2l3-1.6c0,0,8.6,6.3,22.2,6.3
			S391,603.8,391,603.8z"/>
		<polygon fill="#29291D" points="328.6,664.9 328.6,669.1 327.8,668.3 312.7,653.2 312.7,648.9 		"/>
		<polygon fill="#29291D" points="425,648.9 425,653.2 409.9,668.4 409.1,669.1 409.1,664.9 		"/>
		<polygon fill="#898989" points="429.1,653.2 429.1,673.5 409.1,673.5 409.1,669.2 409.1,669.1 409.1,669.4 409.9,668.4 425,653.2 
					"/>
		<polygon fill="#898989" points="328.7,669.2 328.7,673.5 308.6,673.5 308.6,653.2 312.7,653.2 327.8,668.3 328.6,669.4 
			328.6,669.2 		"/>
		<polygon fill="#29291D" points="406.2,714.2 406.2,767.6 401.4,767.6 374.5,767.6 371.1,767.6 368.9,746.9 366.6,767.6 
			363.2,767.6 336.3,767.6 331.6,767.6 331.6,714.2 368.9,714.2 		"/>
		<path fill="#3C54A5" d="M425,622.6v26.4l-15.9,15.9v4.3l0,0v4.3v40.8h-2.9h-37.3h-37.3h-2.9v-40.8v-4.3h0v0v-4.3l-15.9-15.9v-26.4
			l31-17.1c0,0,7.8,8.2,25.1,8.2c17.4,0,25.1-8.2,25.1-8.2L425,622.6z"/>
		<path fill="#221F1F" d="M404.4,826c2.2,0,4,1.9,3.9,4.1l-1.9,44.8c-0.4,9.2-7.9,16.4-17.1,16.4h-41c-9.2,0-16.7-7.2-17.1-16.4
			l-1.9-44.8c-0.1-2.2,1.7-4.1,3.9-4.1h2.9h26.9h11.4h26.9H404.4z"/>
		<rect x="374.5" y="767.6" fill="#FED09F" width="26.9" height="31.9"/>
		<rect x="336.3" y="767.6" fill="#FED09F" width="26.9" height="31.9"/>
		<path fill="#FED09F" d="M346.7,576.2c-3.1,0-4.6-4.5-4.6-7.8s-0.6-9,1.8-9s2.8,2.6,2.8,2.6v9.2v4.5
			C346.7,575.9,346.7,576,346.7,576.2L346.7,576.2z"/>
		<path fill="#FED09F" d="M391,575.7v-4.5V562c0,0,0.4-2.6,2.8-2.6s1.8,5.7,1.8,9s-1.5,7.8-4.6,7.8h0C391,576,391,575.9,391,575.7z"
			/>
		<path fill="#F3BC92" d="M385.8,600.9l5.2,2.9c0,0-8.6,6.3-22.2,6.3s-22.2-6.3-22.2-6.3l5.2-2.9l1.3-7.1c4.2,6,9.9,10.6,15.6,10.6
			c5.7,0,11.4-4.6,15.6-10.5L385.8,600.9z"/>
		<path fill="#FED09F" d="M391,571.2v4.5c0,0.2,0,0.3,0,0.5c-0.1,5.4-2.7,12.1-6.6,17.7v0c-4.2,6-9.9,10.5-15.6,10.5
			c-5.7,0-11.4-4.6-15.6-10.6c-3.8-5.5-6.4-12.2-6.6-17.7c0-0.2,0-0.3,0-0.5v-4.5l1.3,0.3l2.3-19.3c1-1.5,7.8-5.1,18.6-5.1
			c10.7,0,17.5,3.6,18.6,5.1l2.3,19.3L391,571.2z"/>
		<rect x="336.3" y="767.6" fill="#F3BC92" width="26.9" height="6.7"/>
		<rect x="374.5" y="767.6" fill="#F3BC92" width="26.9" height="6.7"/>
		<polygon fill="#FFFFFF" points="395.8,714.2 400.5,714.2 400.5,609 395.8,606.4 		"/>
		<polygon fill="#29291D" points="400.5,714.2 405.3,714.2 405.3,611.7 400.5,609 		"/>
	</g>
	<g>
		<rect x="595.3" y="814.2" fill="#B71F25" width="26.9" height="11.8"/>
		<rect x="557" y="814.2" fill="#B71F25" width="26.9" height="11.8"/>
		<polygon fill="#431F24" points="623.9,799.5 623.9,814.2 622.2,814.2 595.3,814.2 593.6,814.2 593.6,799.5 595.3,799.5 
			622.2,799.5 		"/>
		<polygon fill="#431F24" points="585.7,799.5 585.7,814.2 583.9,814.2 557,814.2 555.3,814.2 555.3,799.5 557,799.5 583.9,799.5 		
			"/>
		<path fill="#5D2F10" d="M611.8,562v9.2l-1.3,0.3l-2.3-19.3c-1-1.5-7.8-5.1-18.6-5.1c-10.7,0-17.5,3.6-18.6,5.1l-2.3,19.3l-1.3-0.3
			V562v-13.8c0-2.7,1-5.1,2.6-7.1h0c1.3-1.7,2.1-4,2.6-5.9c0.6-2.3,2.7-3.8,5.1-3.6c5.2,0.5,13.2,0.5,18.6,1.4
			c5.5,1,11.8,7.1,13,8.1c1.4,1.2,2.6,4.4,2.6,7.1V562z"/>
		<path fill="#431F24" d="M611.8,603.8l3,1.6c0,0-7.7,8.2-25.1,8.2c-17.4,0-25.1-8.2-25.1-8.2l3-1.6c0,0,8.6,6.3,22.2,6.3
			S611.8,603.8,611.8,603.8z"/>
		<polygon fill="#431F24" points="549.4,664.9 549.4,669.1 548.6,668.3 533.5,653.2 533.5,648.9 		"/>
		<polygon fill="#431F24" points="645.8,648.9 645.8,653.2 630.6,668.4 629.8,669.1 629.8,664.9 		"/>
		<polygon fill="#898989" points="649.8,653.2 649.8,673.5 629.8,673.5 629.8,669.2 629.8,669.1 629.8,669.4 630.6,668.4 
			645.8,653.2 		"/>
		<polygon fill="#898989" points="549.4,669.2 549.4,673.5 529.4,673.5 529.4,653.2 533.5,653.2 548.6,668.3 549.4,669.4 
			549.4,669.2 		"/>
		<polygon fill="#431F24" points="626.9,714.2 626.9,767.6 622.2,767.6 595.3,767.6 591.8,767.6 589.6,746.9 587.4,767.6 
			583.9,767.6 557,767.6 552.3,767.6 552.3,714.2 589.6,714.2 		"/>
		<path fill="#B71F25" d="M645.8,622.6v26.4l-15.9,15.9v4.3l0,0v4.3v40.8h-2.9h-37.3h-37.3h-2.9v-40.8v-4.3h0v0v-4.3l-15.9-15.9
			v-26.4l31-17.1c0,0,7.8,8.2,25.1,8.2c17.4,0,25.1-8.2,25.1-8.2L645.8,622.6z"/>
		<path fill="#221F1F" d="M625.1,826c2.2,0,4,1.9,3.9,4.1l-1.9,44.8c-0.4,9.2-7.9,16.4-17.1,16.4h-41c-9.2,0-16.7-7.2-17.1-16.4
			l-1.9-44.8c-0.1-2.2,1.7-4.1,3.9-4.1h2.9h26.9h11.4h26.9H625.1z"/>
		<rect x="595.3" y="767.6" fill="#FED09F" width="26.9" height="31.9"/>
		<rect x="557" y="767.6" fill="#FED09F" width="26.9" height="31.9"/>
		<path fill="#FED09F" d="M567.5,576.2c-3.1,0-4.6-4.5-4.6-7.8s-0.6-9,1.8-9c2.4,0,2.8,2.6,2.8,2.6v9.2v4.5
			C567.5,575.9,567.5,576,567.5,576.2L567.5,576.2z"/>
		<path fill="#FED09F" d="M611.8,575.7v-4.5V562c0,0,0.4-2.6,2.8-2.6c2.4,0,1.8,5.7,1.8,9s-1.5,7.8-4.6,7.8h0
			C611.8,576,611.8,575.9,611.8,575.7z"/>
		<path fill="#F3BC92" d="M606.5,600.9l5.2,2.9c0,0-8.6,6.3-22.2,6.3s-22.2-6.3-22.2-6.3l5.2-2.9l1.3-7.1c4.2,6,9.9,10.6,15.6,10.6
			c5.7,0,11.4-4.6,15.6-10.5L606.5,600.9z"/>
		<path fill="#FED09F" d="M611.8,571.2v4.5c0,0.2,0,0.3,0,0.5c-0.1,5.4-2.7,12.1-6.6,17.7v0c-4.2,6-9.9,10.5-15.6,10.5
			c-5.7,0-11.4-4.6-15.6-10.6c-3.8-5.5-6.4-12.2-6.6-17.7c0-0.2,0-0.3,0-0.5v-4.5l1.3,0.3l2.3-19.3c1-1.5,7.8-5.1,18.6-5.1
			c10.7,0,17.5,3.6,18.6,5.1l2.3,19.3L611.8,571.2z"/>
		<rect x="557" y="767.6" fill="#F3BC92" width="26.9" height="6.7"/>
		<rect x="595.3" y="767.6" fill="#F3BC92" width="26.9" height="6.7"/>
		<rect x="595.3" y="814.2" fill="#B71F25" width="26.9" height="11.8"/>
		<rect x="557" y="814.2" fill="#B71F25" width="26.9" height="11.8"/>
		<polygon fill="#431F24" points="623.9,799.5 623.9,814.2 622.2,814.2 595.3,814.2 593.6,814.2 593.6,799.5 595.3,799.5 
			622.2,799.5 		"/>
		<polygon fill="#431F24" points="585.7,799.5 585.7,814.2 583.9,814.2 557,814.2 555.3,814.2 555.3,799.5 557,799.5 583.9,799.5 		
			"/>
		<path fill="#5D2F10" d="M611.8,562v9.2l-1.3,0.3l-2.3-19.3c-1-1.5-7.8-5.1-18.6-5.1c-10.7,0-17.5,3.6-18.6,5.1l-2.3,19.3l-1.3-0.3
			V562v-13.8c0-2.7,1-5.1,2.6-7.1h0c1.3-1.7,2.1-4,2.6-5.9c0.6-2.3,2.7-3.8,5.1-3.6c5.2,0.5,13.2,0.5,18.6,1.4
			c5.5,1,11.8,7.1,13,8.1c1.4,1.2,2.6,4.4,2.6,7.1V562z"/>
		<path fill="#431F24" d="M611.8,603.8l3,1.6c0,0-7.7,8.2-25.1,8.2c-17.4,0-25.1-8.2-25.1-8.2l3-1.6c0,0,8.6,6.3,22.2,6.3
			S611.8,603.8,611.8,603.8z"/>
		<polygon fill="#431F24" points="549.4,664.9 549.4,669.1 548.6,668.3 533.5,653.2 533.5,648.9 		"/>
		<polygon fill="#431F24" points="645.8,648.9 645.8,653.2 630.6,668.4 629.8,669.1 629.8,664.9 		"/>
		<polygon fill="#898989" points="649.8,653.2 649.8,673.5 629.8,673.5 629.8,669.2 629.8,669.1 629.8,669.4 630.6,668.4 
			645.8,653.2 		"/>
		<polygon fill="#898989" points="549.4,669.2 549.4,673.5 529.4,673.5 529.4,653.2 533.5,653.2 548.6,668.3 549.4,669.4 
			549.4,669.2 		"/>
		<polygon fill="#431F24" points="626.9,714.2 626.9,767.6 622.2,767.6 595.3,767.6 591.8,767.6 589.6,746.9 587.4,767.6 
			583.9,767.6 557,767.6 552.3,767.6 552.3,714.2 589.6,714.2 		"/>
		<path fill="#B71F25" d="M645.8,622.6v26.4l-15.9,15.9v4.3l0,0v4.3v40.8h-2.9h-37.3h-37.3h-2.9v-40.8v-4.3h0v0v-4.3l-15.9-15.9
			v-26.4l31-17.1c0,0,7.8,8.2,25.1,8.2c17.4,0,25.1-8.2,25.1-8.2L645.8,622.6z"/>
		<path fill="#221F1F" d="M625.1,826c2.2,0,4,1.9,3.9,4.1l-1.9,44.8c-0.4,9.2-7.9,16.4-17.1,16.4h-41c-9.2,0-16.7-7.2-17.1-16.4
			l-1.9-44.8c-0.1-2.2,1.7-4.1,3.9-4.1h2.9h26.9h11.4h26.9H625.1z"/>
		<rect x="595.3" y="767.6" fill="#FED09F" width="26.9" height="31.9"/>
		<rect x="557" y="767.6" fill="#FED09F" width="26.9" height="31.9"/>
		<path fill="#FED09F" d="M567.5,576.2c-3.1,0-4.6-4.5-4.6-7.8s-0.6-9,1.8-9c2.4,0,2.8,2.6,2.8,2.6v9.2v4.5
			C567.5,575.9,567.5,576,567.5,576.2L567.5,576.2z"/>
		<path fill="#FED09F" d="M611.8,575.7v-4.5V562c0,0,0.4-2.6,2.8-2.6c2.4,0,1.8,5.7,1.8,9s-1.5,7.8-4.6,7.8h0
			C611.8,576,611.8,575.9,611.8,575.7z"/>
		<path fill="#F3BC92" d="M606.5,600.9l5.2,2.9c0,0-8.6,6.3-22.2,6.3s-22.2-6.3-22.2-6.3l5.2-2.9l1.3-7.1c4.2,6,9.9,10.6,15.6,10.6
			c5.7,0,11.4-4.6,15.6-10.5L606.5,600.9z"/>
		<path fill="#FED09F" d="M611.8,571.2v4.5c0,0.2,0,0.3,0,0.5c-0.1,5.4-2.7,12.1-6.6,17.7v0c-4.2,6-9.9,10.5-15.6,10.5
			c-5.7,0-11.4-4.6-15.6-10.6c-3.8-5.5-6.4-12.2-6.6-17.7c0-0.2,0-0.3,0-0.5v-4.5l1.3,0.3l2.3-19.3c1-1.5,7.8-5.1,18.6-5.1
			c10.7,0,17.5,3.6,18.6,5.1l2.3,19.3L611.8,571.2z"/>
		<rect x="557" y="767.6" fill="#F3BC92" width="26.9" height="6.7"/>
		<rect x="595.3" y="767.6" fill="#F3BC92" width="26.9" height="6.7"/>
		<rect x="595.3" y="814.2" fill="#B71F25" width="26.9" height="11.8"/>
		<rect x="557" y="814.2" fill="#B71F25" width="26.9" height="11.8"/>
		<polygon fill="#431F24" points="623.9,799.5 623.9,814.2 622.2,814.2 595.3,814.2 593.6,814.2 593.6,799.5 595.3,799.5 
			622.2,799.5 		"/>
		<polygon fill="#431F24" points="585.7,799.5 585.7,814.2 583.9,814.2 557,814.2 555.3,814.2 555.3,799.5 557,799.5 583.9,799.5 		
			"/>
		<path fill="#5D2F10" d="M611.8,562v9.2l-1.3,0.3l-2.3-19.3c-1-1.5-7.8-5.1-18.6-5.1c-10.7,0-17.5,3.6-18.6,5.1l-2.3,19.3l-1.3-0.3
			V562v-13.8c0-2.7,1-5.1,2.6-7.1h0c1.3-1.7,2.1-4,2.6-5.9c0.6-2.3,2.7-3.8,5.1-3.6c5.2,0.5,13.2,0.5,18.6,1.4
			c5.5,1,11.8,7.1,13,8.1c1.4,1.2,2.6,4.4,2.6,7.1V562z"/>
		<path fill="#431F24" d="M611.8,603.8l3,1.6c0,0-7.7,8.2-25.1,8.2c-17.4,0-25.1-8.2-25.1-8.2l3-1.6c0,0,8.6,6.3,22.2,6.3
			S611.8,603.8,611.8,603.8z"/>
		<polygon fill="#431F24" points="549.4,664.9 549.4,669.1 548.6,668.3 533.5,653.2 533.5,648.9 		"/>
		<polygon fill="#431F24" points="645.8,648.9 645.8,653.2 630.6,668.4 629.8,669.1 629.8,664.9 		"/>
		<polygon fill="#898989" points="649.8,653.2 649.8,673.5 629.8,673.5 629.8,669.2 629.8,669.1 629.8,669.4 630.6,668.4 
			645.8,653.2 		"/>
		<polygon fill="#898989" points="549.4,669.2 549.4,673.5 529.4,673.5 529.4,653.2 533.5,653.2 548.6,668.3 549.4,669.4 
			549.4,669.2 		"/>
		<polygon fill="#431F24" points="626.9,714.2 626.9,767.6 622.2,767.6 595.3,767.6 591.8,767.6 589.6,746.9 587.4,767.6 
			583.9,767.6 557,767.6 552.3,767.6 552.3,714.2 589.6,714.2 		"/>
		<path fill="#B71F25" d="M645.8,622.6v26.4l-15.9,15.9v4.3l0,0v4.3v40.8h-2.9h-37.3h-37.3h-2.9v-40.8v-4.3h0v0v-4.3l-15.9-15.9
			v-26.4l31-17.1c0,0,7.8,8.2,25.1,8.2c17.4,0,25.1-8.2,25.1-8.2L645.8,622.6z"/>
		<path fill="#221F1F" d="M625.1,826c2.2,0,4,1.9,3.9,4.1l-1.9,44.8c-0.4,9.2-7.9,16.4-17.1,16.4h-41c-9.2,0-16.7-7.2-17.1-16.4
			l-1.9-44.8c-0.1-2.2,1.7-4.1,3.9-4.1h2.9h26.9h11.4h26.9H625.1z"/>
		<rect x="595.3" y="767.6" fill="#FED09F" width="26.9" height="31.9"/>
		<rect x="557" y="767.6" fill="#FED09F" width="26.9" height="31.9"/>
		<path fill="#FED09F" d="M567.5,576.2c-3.1,0-4.6-4.5-4.6-7.8s-0.6-9,1.8-9c2.4,0,2.8,2.6,2.8,2.6v9.2v4.5
			C567.5,575.9,567.5,576,567.5,576.2L567.5,576.2z"/>
		<path fill="#FED09F" d="M611.8,575.7v-4.5V562c0,0,0.4-2.6,2.8-2.6c2.4,0,1.8,5.7,1.8,9s-1.5,7.8-4.6,7.8h0
			C611.8,576,611.8,575.9,611.8,575.7z"/>
		<path fill="#F3BC92" d="M606.5,600.9l5.2,2.9c0,0-8.6,6.3-22.2,6.3s-22.2-6.3-22.2-6.3l5.2-2.9l1.3-7.1c4.2,6,9.9,10.6,15.6,10.6
			c5.7,0,11.4-4.6,15.6-10.5L606.5,600.9z"/>
		<path fill="#FED09F" d="M611.8,571.2v4.5c0,0.2,0,0.3,0,0.5c-0.1,5.4-2.7,12.1-6.6,17.7v0c-4.2,6-9.9,10.5-15.6,10.5
			c-5.7,0-11.4-4.6-15.6-10.6c-3.8-5.5-6.4-12.2-6.6-17.7c0-0.2,0-0.3,0-0.5v-4.5l1.3,0.3l2.3-19.3c1-1.5,7.8-5.1,18.6-5.1
			c10.7,0,17.5,3.6,18.6,5.1l2.3,19.3L611.8,571.2z"/>
		<rect x="557" y="767.6" fill="#F3BC92" width="26.9" height="6.7"/>
		<rect x="595.3" y="767.6" fill="#F3BC92" width="26.9" height="6.7"/>
		<polygon fill="#CB2027" points="589.6,678.2 549.4,666 549.4,673.9 589.6,686 629.9,673.9 629.9,666 		"/>
		<polygon fill="#CB2027" points="589.6,655.1 549.4,642.9 549.4,650.8 589.6,662.9 629.9,650.8 629.9,642.9 		"/>
		<polygon fill="#CB2027" points="589.6,632 549.4,619.8 549.4,627.7 589.6,639.8 629.9,627.7 629.9,619.8 		"/>
		<polygon fill="#CB2027" points="589.6,701.3 549.4,689.1 549.4,697 589.6,709.1 629.9,697 629.9,689.1 		"/>
	</g>
	<g>
		<rect x="816.1" y="814.2" fill="#FCCC17" width="26.9" height="11.8"/>
		<rect x="777.8" y="814.2" fill="#FCCC17" width="26.9" height="11.8"/>
		<polygon fill="#3A54A5" points="844.7,799.5 844.7,814.2 843,814.2 816.1,814.2 814.3,814.2 814.3,799.5 816.1,799.5 843,799.5 		
			"/>
		<polygon fill="#3A54A5" points="806.4,799.5 806.4,814.2 804.7,814.2 777.8,814.2 776.1,814.2 776.1,799.5 777.8,799.5 
			804.7,799.5 		"/>
		<path fill="#5D2F10" d="M832.5,562v9.2l-1.3,0.3l-2.3-19.3c-1-1.5-7.8-5.1-18.6-5.1c-10.7,0-17.5,3.6-18.6,5.1l-2.3,19.3l-1.3-0.3
			V562v-13.8c0-2.7,1-5.1,2.6-7.1h0c1.3-1.7,2.1-4,2.6-5.9c0.6-2.3,2.7-3.8,5.1-3.6c5.2,0.5,13.2,0.5,18.6,1.4
			c5.5,1,11.8,7.1,13,8.1c1.4,1.2,2.6,4.4,2.6,7.1V562z"/>
		<path fill="#3A54A5" d="M832.5,603.8l3,1.6c0,0-7.7,8.2-25.1,8.2c-17.4,0-25.1-8.2-25.1-8.2l3-1.6c0,0,8.6,6.3,22.2,6.3
			S832.5,603.8,832.5,603.8z"/>
		<polygon fill="#3A54A5" points="770.2,664.9 770.2,669.1 769.4,668.3 754.2,653.2 754.2,648.9 		"/>
		<polygon fill="#3A54A5" points="866.5,648.9 866.5,653.2 851.4,668.4 850.6,669.1 850.6,664.9 		"/>
		<polygon fill="#898989" points="870.6,653.2 870.6,673.5 850.6,673.5 850.6,669.2 850.6,669.1 850.6,669.4 851.4,668.4 
			866.5,653.2 		"/>
		<polygon fill="#898989" points="770.2,669.2 770.2,673.5 750.2,673.5 750.2,653.2 754.2,653.2 769.4,668.3 770.2,669.4 
			770.2,669.2 		"/>
		<polygon fill="#3A54A5" points="847.7,714.2 847.7,767.6 843,767.6 816.1,767.6 812.6,767.6 810.4,746.9 808.2,767.6 804.7,767.6 
			777.8,767.6 773.1,767.6 773.1,714.2 810.4,714.2 		"/>
		<path fill="#FCCC17" d="M866.5,622.6v26.4l-15.9,15.9v4.3l0,0v4.3v40.8h-2.9h-37.3h-37.3h-2.9v-40.8v-4.3h0v0v-4.3l-15.9-15.9
			v-26.4l31-17.1c0,0,7.8,8.2,25.1,8.2c17.4,0,25.1-8.2,25.1-8.2L866.5,622.6z"/>
		<path fill="#221F1F" d="M845.9,826c2.2,0,4,1.9,3.9,4.1l-1.9,44.8c-0.4,9.2-7.9,16.4-17.1,16.4h-41c-9.2,0-16.7-7.2-17.1-16.4
			l-1.9-44.8c-0.1-2.2,1.7-4.1,3.9-4.1h2.9h26.9h11.4H843H845.9z"/>
		<rect x="816.1" y="767.6" fill="#FED09F" width="26.9" height="31.9"/>
		<rect x="777.8" y="767.6" fill="#FED09F" width="26.9" height="31.9"/>
		<path fill="#FED09F" d="M788.2,576.2c-3.1,0-4.6-4.5-4.6-7.8s-0.6-9,1.8-9c2.4,0,2.8,2.6,2.8,2.6v9.2v4.5
			C788.2,575.9,788.2,576,788.2,576.2L788.2,576.2z"/>
		<path fill="#FED09F" d="M832.5,575.7v-4.5V562c0,0,0.4-2.6,2.8-2.6c2.4,0,1.8,5.7,1.8,9s-1.5,7.8-4.6,7.8h0
			C832.5,576,832.5,575.9,832.5,575.7z"/>
		<path fill="#F3BC92" d="M827.3,600.9l5.2,2.9c0,0-8.6,6.3-22.2,6.3s-22.2-6.3-22.2-6.3l5.2-2.9l1.3-7.1c4.2,6,9.9,10.6,15.6,10.6
			c5.7,0,11.4-4.6,15.6-10.5L827.3,600.9z"/>
		<path fill="#FED09F" d="M832.5,571.2v4.5c0,0.2,0,0.3,0,0.5c-0.1,5.4-2.7,12.1-6.6,17.7v0c-4.2,6-9.9,10.5-15.6,10.5
			c-5.7,0-11.4-4.6-15.6-10.6c-3.8-5.5-6.4-12.2-6.6-17.7c0-0.2,0-0.3,0-0.5v-4.5l1.3,0.3l2.3-19.3c1-1.5,7.8-5.1,18.6-5.1
			c10.7,0,17.5,3.6,18.6,5.1l2.3,19.3L832.5,571.2z"/>
		<rect x="777.8" y="767.6" fill="#F3BC92" width="26.9" height="6.7"/>
		<rect x="816.1" y="767.6" fill="#F3BC92" width="26.9" height="6.7"/>
		<rect x="816.1" y="814.2" fill="#FCCC17" width="26.9" height="11.8"/>
		<rect x="777.8" y="814.2" fill="#FCCC17" width="26.9" height="11.8"/>
		<polygon fill="#3A54A5" points="844.7,799.5 844.7,814.2 843,814.2 816.1,814.2 814.3,814.2 814.3,799.5 816.1,799.5 843,799.5 		
			"/>
		<polygon fill="#3A54A5" points="806.4,799.5 806.4,814.2 804.7,814.2 777.8,814.2 776.1,814.2 776.1,799.5 777.8,799.5 
			804.7,799.5 		"/>
		<path fill="#5D2F10" d="M832.5,562v9.2l-1.3,0.3l-2.3-19.3c-1-1.5-7.8-5.1-18.6-5.1c-10.7,0-17.5,3.6-18.6,5.1l-2.3,19.3l-1.3-0.3
			V562v-13.8c0-2.7,1-5.1,2.6-7.1h0c1.3-1.7,2.1-4,2.6-5.9c0.6-2.3,2.7-3.8,5.1-3.6c5.2,0.5,13.2,0.5,18.6,1.4
			c5.5,1,11.8,7.1,13,8.1c1.4,1.2,2.6,4.4,2.6,7.1V562z"/>
		<path fill="#3A54A5" d="M832.5,603.8l3,1.6c0,0-7.7,8.2-25.1,8.2c-17.4,0-25.1-8.2-25.1-8.2l3-1.6c0,0,8.6,6.3,22.2,6.3
			S832.5,603.8,832.5,603.8z"/>
		<polygon fill="#3A54A5" points="770.2,664.9 770.2,669.1 769.4,668.3 754.2,653.2 754.2,648.9 		"/>
		<polygon fill="#3A54A5" points="866.5,648.9 866.5,653.2 851.4,668.4 850.6,669.1 850.6,664.9 		"/>
		<polygon fill="#898989" points="870.6,653.2 870.6,673.5 850.6,673.5 850.6,669.2 850.6,669.1 850.6,669.4 851.4,668.4 
			866.5,653.2 		"/>
		<polygon fill="#898989" points="770.2,669.2 770.2,673.5 750.2,673.5 750.2,653.2 754.2,653.2 769.4,668.3 770.2,669.4 
			770.2,669.2 		"/>
		<polygon fill="#3A54A5" points="847.7,714.2 847.7,767.6 843,767.6 816.1,767.6 812.6,767.6 810.4,746.9 808.2,767.6 804.7,767.6 
			777.8,767.6 773.1,767.6 773.1,714.2 810.4,714.2 		"/>
		<path fill="#FCCC17" d="M866.5,622.6v26.4l-15.9,15.9v4.3l0,0v4.3v40.8h-2.9h-37.3h-37.3h-2.9v-40.8v-4.3h0v0v-4.3l-15.9-15.9
			v-26.4l31-17.1c0,0,7.8,8.2,25.1,8.2c17.4,0,25.1-8.2,25.1-8.2L866.5,622.6z"/>
		<path fill="#221F1F" d="M845.9,826c2.2,0,4,1.9,3.9,4.1l-1.9,44.8c-0.4,9.2-7.9,16.4-17.1,16.4h-41c-9.2,0-16.7-7.2-17.1-16.4
			l-1.9-44.8c-0.1-2.2,1.7-4.1,3.9-4.1h2.9h26.9h11.4H843H845.9z"/>
		<rect x="816.1" y="767.6" fill="#FED09F" width="26.9" height="31.9"/>
		<rect x="777.8" y="767.6" fill="#FED09F" width="26.9" height="31.9"/>
		<path fill="#FED09F" d="M788.2,576.2c-3.1,0-4.6-4.5-4.6-7.8s-0.6-9,1.8-9c2.4,0,2.8,2.6,2.8,2.6v9.2v4.5
			C788.2,575.9,788.2,576,788.2,576.2L788.2,576.2z"/>
		<path fill="#FED09F" d="M832.5,575.7v-4.5V562c0,0,0.4-2.6,2.8-2.6c2.4,0,1.8,5.7,1.8,9s-1.5,7.8-4.6,7.8h0
			C832.5,576,832.5,575.9,832.5,575.7z"/>
		<path fill="#F3BC92" d="M827.3,600.9l5.2,2.9c0,0-8.6,6.3-22.2,6.3s-22.2-6.3-22.2-6.3l5.2-2.9l1.3-7.1c4.2,6,9.9,10.6,15.6,10.6
			c5.7,0,11.4-4.6,15.6-10.5L827.3,600.9z"/>
		<path fill="#FED09F" d="M832.5,571.2v4.5c0,0.2,0,0.3,0,0.5c-0.1,5.4-2.7,12.1-6.6,17.7v0c-4.2,6-9.9,10.5-15.6,10.5
			c-5.7,0-11.4-4.6-15.6-10.6c-3.8-5.5-6.4-12.2-6.6-17.7c0-0.2,0-0.3,0-0.5v-4.5l1.3,0.3l2.3-19.3c1-1.5,7.8-5.1,18.6-5.1
			c10.7,0,17.5,3.6,18.6,5.1l2.3,19.3L832.5,571.2z"/>
		<rect x="777.8" y="767.6" fill="#F3BC92" width="26.9" height="6.7"/>
		<rect x="816.1" y="767.6" fill="#F3BC92" width="26.9" height="6.7"/>
		<rect x="816.1" y="814.2" fill="#FCCC17" width="26.9" height="11.8"/>
		<rect x="777.8" y="814.2" fill="#FCCC17" width="26.9" height="11.8"/>
		<polygon fill="#3A54A5" points="844.7,799.5 844.7,814.2 843,814.2 816.1,814.2 814.3,814.2 814.3,799.5 816.1,799.5 843,799.5 		
			"/>
		<polygon fill="#3A54A5" points="806.4,799.5 806.4,814.2 804.7,814.2 777.8,814.2 776.1,814.2 776.1,799.5 777.8,799.5 
			804.7,799.5 		"/>
		<path fill="#5D2F10" d="M832.5,562v9.2l-1.3,0.3l-2.3-19.3c-1-1.5-7.8-5.1-18.6-5.1c-10.7,0-17.5,3.6-18.6,5.1l-2.3,19.3l-1.3-0.3
			V562v-13.8c0-2.7,1-5.1,2.6-7.1h0c1.3-1.7,2.1-4,2.6-5.9c0.6-2.3,2.7-3.8,5.1-3.6c5.2,0.5,13.2,0.5,18.6,1.4
			c5.5,1,11.8,7.1,13,8.1c1.4,1.2,2.6,4.4,2.6,7.1V562z"/>
		<path fill="#3A54A5" d="M832.5,603.8l3,1.6c0,0-7.7,8.2-25.1,8.2c-17.4,0-25.1-8.2-25.1-8.2l3-1.6c0,0,8.6,6.3,22.2,6.3
			S832.5,603.8,832.5,603.8z"/>
		<polygon fill="#3A54A5" points="770.2,664.9 770.2,669.1 769.4,668.3 754.2,653.2 754.2,648.9 		"/>
		<polygon fill="#3A54A5" points="866.5,648.9 866.5,653.2 851.4,668.4 850.6,669.1 850.6,664.9 		"/>
		<polygon fill="#898989" points="870.6,653.2 870.6,673.5 850.6,673.5 850.6,669.2 850.6,669.1 850.6,669.4 851.4,668.4 
			866.5,653.2 		"/>
		<polygon fill="#898989" points="770.2,669.2 770.2,673.5 750.2,673.5 750.2,653.2 754.2,653.2 769.4,668.3 770.2,669.4 
			770.2,669.2 		"/>
		<polygon fill="#3A54A5" points="847.7,714.2 847.7,767.6 843,767.6 816.1,767.6 812.6,767.6 810.4,746.9 808.2,767.6 804.7,767.6 
			777.8,767.6 773.1,767.6 773.1,714.2 810.4,714.2 		"/>
		<path fill="#FCCC17" d="M866.5,622.6v26.4l-15.9,15.9v4.3l0,0v4.3v40.8h-2.9h-37.3h-37.3h-2.9v-40.8v-4.3h0v0v-4.3l-15.9-15.9
			v-26.4l31-17.1c0,0,7.8,8.2,25.1,8.2c17.4,0,25.1-8.2,25.1-8.2L866.5,622.6z"/>
		<path fill="#221F1F" d="M845.9,826c2.2,0,4,1.9,3.9,4.1l-1.9,44.8c-0.4,9.2-7.9,16.4-17.1,16.4h-41c-9.2,0-16.7-7.2-17.1-16.4
			l-1.9-44.8c-0.1-2.2,1.7-4.1,3.9-4.1h2.9h26.9h11.4H843H845.9z"/>
		<rect x="816.1" y="767.6" fill="#FED09F" width="26.9" height="31.9"/>
		<rect x="777.8" y="767.6" fill="#FED09F" width="26.9" height="31.9"/>
		<path fill="#FED09F" d="M788.2,576.2c-3.1,0-4.6-4.5-4.6-7.8s-0.6-9,1.8-9c2.4,0,2.8,2.6,2.8,2.6v9.2v4.5
			C788.2,575.9,788.2,576,788.2,576.2L788.2,576.2z"/>
		<path fill="#FED09F" d="M832.5,575.7v-4.5V562c0,0,0.4-2.6,2.8-2.6c2.4,0,1.8,5.7,1.8,9s-1.5,7.8-4.6,7.8h0
			C832.5,576,832.5,575.9,832.5,575.7z"/>
		<path fill="#F3BC92" d="M827.3,600.9l5.2,2.9c0,0-8.6,6.3-22.2,6.3s-22.2-6.3-22.2-6.3l5.2-2.9l1.3-7.1c4.2,6,9.9,10.6,15.6,10.6
			c5.7,0,11.4-4.6,15.6-10.5L827.3,600.9z"/>
		<path fill="#FED09F" d="M832.5,571.2v4.5c0,0.2,0,0.3,0,0.5c-0.1,5.4-2.7,12.1-6.6,17.7v0c-4.2,6-9.9,10.5-15.6,10.5
			c-5.7,0-11.4-4.6-15.6-10.6c-3.8-5.5-6.4-12.2-6.6-17.7c0-0.2,0-0.3,0-0.5v-4.5l1.3,0.3l2.3-19.3c1-1.5,7.8-5.1,18.6-5.1
			c10.7,0,17.5,3.6,18.6,5.1l2.3,19.3L832.5,571.2z"/>
		<rect x="777.8" y="767.6" fill="#F3BC92" width="26.9" height="6.7"/>
		<rect x="816.1" y="767.6" fill="#F3BC92" width="26.9" height="6.7"/>
		<path fill="#3A54A5" d="M788.2,603.8l-34,18.7v4.9l37.2-21.1C789.3,604.9,788.2,603.8,788.2,603.8z"/>
		<path fill="#3A54A5" d="M832.5,603.8l34,18.7v4.9l-37.2-21.1C831.5,604.9,832.5,603.8,832.5,603.8z"/>
		<rect x="770.2" y="682.3" fill="#3A54A5" width="80.4" height="5"/>
		<rect x="770.2" y="691.3" fill="#3A54A5" width="80.4" height="5"/>
		<rect x="770.2" y="700.3" fill="#3A54A5" width="80.4" height="5"/>
	</g>
	<g>
		<rect x="1036.8" y="814.2" fill="#3A54A5" width="26.9" height="11.8"/>
		<rect x="998.6" y="814.2" fill="#3A54A5" width="26.9" height="11.8"/>
		<polygon fill="#FFFFFF" points="1065.5,799.5 1065.5,814.2 1063.7,814.2 1036.8,814.2 1035.1,814.2 1035.1,799.5 1036.8,799.5 
			1063.7,799.5 		"/>
		<polygon fill="#FFFFFF" points="1027.2,799.5 1027.2,814.2 1025.5,814.2 998.6,814.2 996.8,814.2 996.8,799.5 998.6,799.5 
			1025.5,799.5 		"/>
		<path fill="#5D2F10" d="M1053.3,562v9.2l-1.3,0.3l-2.3-19.3c-1-1.5-7.8-5.1-18.6-5.1c-10.7,0-17.5,3.6-18.6,5.1l-2.3,19.3
			l-1.3-0.3V562v-13.8c0-2.7,1-5.1,2.6-7.1h0c1.3-1.7,2.1-4,2.6-5.9c0.6-2.3,2.7-3.8,5.1-3.6c5.2,0.5,13.2,0.5,18.6,1.4
			c5.5,1,11.8,7.1,13,8.1c1.4,1.2,2.6,4.4,2.6,7.1V562z"/>
		<path fill="#FFFFFF" d="M1053.3,603.8l3,1.6c0,0-7.7,8.2-25.1,8.2c-17.4,0-25.1-8.2-25.1-8.2l3-1.6c0,0,8.6,6.3,22.2,6.3
			C1044.7,610.2,1053.3,603.8,1053.3,603.8z"/>
		<polygon fill="#FFFFFF" points="990.9,664.9 990.9,669.1 990.1,668.3 975,653.2 975,648.9 		"/>
		<polygon fill="#FFFFFF" points="1087.3,648.9 1087.3,653.2 1072.2,668.4 1071.4,669.1 1071.4,664.9 		"/>
		<polygon fill="#898989" points="1091.4,653.2 1091.4,673.5 1071.3,673.5 1071.3,669.2 1071.4,669.1 1071.4,669.4 1072.2,668.4 
			1087.3,653.2 		"/>
		<polygon fill="#898989" points="990.9,669.2 990.9,673.5 970.9,673.5 970.9,653.2 975,653.2 990.1,668.3 990.9,669.4 990.9,669.2 
					"/>
		<polygon fill="#FFFFFF" points="1068.4,714.2 1068.4,767.6 1063.7,767.6 1036.8,767.6 1033.4,767.6 1031.1,746.9 1028.9,767.6 
			1025.5,767.6 998.6,767.6 993.8,767.6 993.8,714.2 1031.1,714.2 		"/>
		<path fill="#3A54A5" d="M1087.3,622.6v26.4l-15.9,15.9v4.3l0,0v4.3v40.8h-2.9h-37.3h-37.3h-2.9v-40.8v-4.3h0v0v-4.3L975,648.9
			v-26.4l31-17.1c0,0,7.8,8.2,25.1,8.2c17.4,0,25.1-8.2,25.1-8.2L1087.3,622.6z"/>
		<path fill="#221F1F" d="M1066.7,826c2.2,0,4,1.9,3.9,4.1l-1.9,44.8c-0.4,9.2-7.9,16.4-17.1,16.4h-41c-9.2,0-16.7-7.2-17.1-16.4
			l-1.9-44.8c-0.1-2.2,1.7-4.1,3.9-4.1h2.9h26.9h11.4h26.9H1066.7z"/>
		<rect x="1036.8" y="767.6" fill="#FED09F" width="26.9" height="31.9"/>
		<rect x="998.6" y="767.6" fill="#FED09F" width="26.9" height="31.9"/>
		<path fill="#FED09F" d="M1009,576.2c-3.1,0-4.6-4.5-4.6-7.8s-0.6-9,1.8-9c2.4,0,2.8,2.6,2.8,2.6v9.2v4.5
			C1009,575.9,1009,576,1009,576.2L1009,576.2z"/>
		<path fill="#FED09F" d="M1053.3,575.7v-4.5V562c0,0,0.4-2.6,2.8-2.6s1.8,5.7,1.8,9s-1.5,7.8-4.6,7.8h0
			C1053.3,576,1053.3,575.9,1053.3,575.7z"/>
		<path fill="#F3BC92" d="M1048.1,600.9l5.2,2.9c0,0-8.6,6.3-22.2,6.3c-13.6,0-22.2-6.3-22.2-6.3l5.2-2.9l1.3-7.1
			c4.2,6,9.9,10.6,15.6,10.6c5.7,0,11.4-4.6,15.6-10.5L1048.1,600.9z"/>
		<path fill="#FED09F" d="M1053.3,571.2v4.5c0,0.2,0,0.3,0,0.5c-0.1,5.4-2.7,12.1-6.6,17.7v0c-4.2,6-9.9,10.5-15.6,10.5
			c-5.7,0-11.4-4.6-15.6-10.6c-3.8-5.5-6.4-12.2-6.6-17.7c0-0.2,0-0.3,0-0.5v-4.5l1.3,0.3l2.3-19.3c1-1.5,7.8-5.1,18.6-5.1
			c10.7,0,17.5,3.6,18.6,5.1l2.3,19.3L1053.3,571.2z"/>
		<rect x="998.6" y="767.6" fill="#F3BC92" width="26.9" height="6.7"/>
		<rect x="1036.8" y="767.6" fill="#F3BC92" width="26.9" height="6.7"/>
		<rect x="1036.8" y="814.2" fill="#3A54A5" width="26.9" height="11.8"/>
		<rect x="998.6" y="814.2" fill="#3A54A5" width="26.9" height="11.8"/>
		<polygon fill="#FFFFFF" points="1065.5,799.5 1065.5,814.2 1063.7,814.2 1036.8,814.2 1035.1,814.2 1035.1,799.5 1036.8,799.5 
			1063.7,799.5 		"/>
		<polygon fill="#FFFFFF" points="1027.2,799.5 1027.2,814.2 1025.5,814.2 998.6,814.2 996.8,814.2 996.8,799.5 998.6,799.5 
			1025.5,799.5 		"/>
		<path fill="#5D2F10" d="M1053.3,562v9.2l-1.3,0.3l-2.3-19.3c-1-1.5-7.8-5.1-18.6-5.1c-10.7,0-17.5,3.6-18.6,5.1l-2.3,19.3
			l-1.3-0.3V562v-13.8c0-2.7,1-5.1,2.6-7.1h0c1.3-1.7,2.1-4,2.6-5.9c0.6-2.3,2.7-3.8,5.1-3.6c5.2,0.5,13.2,0.5,18.6,1.4
			c5.5,1,11.8,7.1,13,8.1c1.4,1.2,2.6,4.4,2.6,7.1V562z"/>
		<polygon fill="#898989" points="1091.4,653.2 1091.4,673.5 1071.3,673.5 1071.3,669.2 1071.4,669.1 1071.4,669.4 1072.2,668.4 
			1087.3,653.2 		"/>
		<polygon fill="#898989" points="990.9,669.2 990.9,673.5 970.9,673.5 970.9,653.2 975,653.2 990.1,668.3 990.9,669.4 990.9,669.2 
					"/>
		<polygon fill="#3A54A5" points="1068.4,714.2 1068.4,767.6 1063.7,767.6 1036.8,767.6 1033.4,767.6 1031.1,746.9 1028.9,767.6 
			1025.5,767.6 998.6,767.6 993.8,767.6 993.8,714.2 1031.1,714.2 		"/>
		<path fill="#3A54A5" d="M1087.3,622.6v26.4l-15.9,15.9v4.3l0,0v4.3v40.8h-2.9h-37.3h-37.3h-2.9v-40.8v-4.3h0v0v-4.3L975,648.9
			v-26.4l31-17.1c0,0,7.8,8.2,25.1,8.2c17.4,0,25.1-8.2,25.1-8.2L1087.3,622.6z"/>
		<g>
			<g>
				<polygon fill="#FFFFFF" points="979.7,654.8 977.7,654.8 977.7,624.2 1012.2,605.2 1013.2,607 979.7,625.4 				"/>
			</g>
			<g>
				<polygon fill="#FFFFFF" points="1082.5,654.8 1084.5,654.8 1084.5,624.2 1050,605.2 1049.1,607 1082.5,625.4 				"/>
			</g>
		</g>
		<path fill="#221F1F" d="M1066.7,826c2.2,0,4,1.9,3.9,4.1l-1.9,44.8c-0.4,9.2-7.9,16.4-17.1,16.4h-41c-9.2,0-16.7-7.2-17.1-16.4
			l-1.9-44.8c-0.1-2.2,1.7-4.1,3.9-4.1h2.9h26.9h11.4h26.9H1066.7z"/>
		<rect x="1036.8" y="767.6" fill="#FED09F" width="26.9" height="31.9"/>
		<rect x="998.6" y="767.6" fill="#FED09F" width="26.9" height="31.9"/>
		<path fill="#FED09F" d="M1009,576.2c-3.1,0-4.6-4.5-4.6-7.8s-0.6-9,1.8-9c2.4,0,2.8,2.6,2.8,2.6v9.2v4.5
			C1009,575.9,1009,576,1009,576.2L1009,576.2z"/>
		<path fill="#FED09F" d="M1053.3,575.7v-4.5V562c0,0,0.4-2.6,2.8-2.6s1.8,5.7,1.8,9s-1.5,7.8-4.6,7.8h0
			C1053.3,576,1053.3,575.9,1053.3,575.7z"/>
		<path fill="#F3BC92" d="M1048.1,600.9l5.2,2.9c0,0-8.6,6.3-22.2,6.3c-13.6,0-22.2-6.3-22.2-6.3l5.2-2.9l1.3-7.1
			c4.2,6,9.9,10.6,15.6,10.6c5.7,0,11.4-4.6,15.6-10.5L1048.1,600.9z"/>
		<path fill="#FED09F" d="M1053.3,571.2v4.5c0,0.2,0,0.3,0,0.5c-0.1,5.4-2.7,12.1-6.6,17.7v0c-4.2,6-9.9,10.5-15.6,10.5
			c-5.7,0-11.4-4.6-15.6-10.6c-3.8-5.5-6.4-12.2-6.6-17.7c0-0.2,0-0.3,0-0.5v-4.5l1.3,0.3l2.3-19.3c1-1.5,7.8-5.1,18.6-5.1
			c10.7,0,17.5,3.6,18.6,5.1l2.3,19.3L1053.3,571.2z"/>
		<rect x="998.6" y="767.6" fill="#F3BC92" width="26.9" height="6.7"/>
		<rect x="1036.8" y="767.6" fill="#F3BC92" width="26.9" height="6.7"/>
		<rect x="993.8" y="714.2" fill="#ED1C24" width="3" height="53.4"/>
		<rect x="996.8" y="714.2" fill="#FFFFFF" width="3" height="53.4"/>
		<rect x="1066.7" y="714.2" fill="#ED1C24" width="3" height="53.4"/>
		<rect x="1063.7" y="714.2" fill="#FFFFFF" width="3" height="53.4"/>
		<path fill="#FFFFFF" d="M1053.3,603.8l3,1.6c0,0-7.7,8.2-25.1,8.2c-17.4,0-25.1-8.2-25.1-8.2l3-1.6c0,0,8.6,6.3,22.2,6.3
			C1044.7,610.2,1053.3,603.8,1053.3,603.8z"/>
		<polygon fill="#ED1C24" points="990.9,664.9 990.9,669.1 990.1,668.3 975,653.2 975,648.9 		"/>
		<polygon fill="#ED1C24" points="1087.3,648.9 1087.3,653.2 1072.2,668.4 1071.4,669.1 1071.4,664.9 		"/>
	</g>
	<g>
		<rect x="1257.6" y="814.2" fill="#FFFFFF" width="26.9" height="11.8"/>
		<rect x="1219.3" y="814.2" fill="#FFFFFF" width="26.9" height="11.8"/>
		<polygon fill="#0D4066" points="1286.2,799.5 1286.2,814.2 1284.5,814.2 1257.6,814.2 1255.9,814.2 1255.9,799.5 1257.6,799.5 
			1284.5,799.5 		"/>
		<polygon fill="#0D4066" points="1248,799.5 1248,814.2 1246.2,814.2 1219.3,814.2 1217.6,814.2 1217.6,799.5 1219.3,799.5 
			1246.2,799.5 		"/>
		<path fill="#5D2F10" d="M1274.1,562v9.2l-1.3,0.3l-2.3-19.3c-1-1.5-7.8-5.1-18.6-5.1s-17.5,3.6-18.6,5.1l-2.3,19.3l-1.3-0.3V562
			v-13.8c0-2.7,1-5.1,2.6-7.1h0c1.3-1.7,2.1-4,2.6-5.9c0.6-2.3,2.7-3.8,5.1-3.6c5.2,0.5,13.2,0.5,18.6,1.4c5.5,1,11.8,7.1,13,8.1
			c1.4,1.2,2.6,4.4,2.6,7.1V562z"/>
		<path fill="#0D4066" d="M1274.1,603.8l3,1.6c0,0-7.7,8.2-25.1,8.2c-17.4,0-25.1-8.2-25.1-8.2l3-1.6c0,0,8.6,6.3,22.2,6.3
			C1265.5,610.2,1274.1,603.8,1274.1,603.8z"/>
		<polygon fill="#0D4066" points="1211.7,664.9 1211.7,669.1 1210.9,668.3 1195.7,653.2 1195.7,648.9 		"/>
		<polygon fill="#0D4066" points="1308.1,648.9 1308.1,653.2 1292.9,668.4 1292.1,669.1 1292.1,664.9 		"/>
		<polygon fill="#898989" points="1312.1,653.2 1312.1,673.5 1292.1,673.5 1292.1,669.2 1292.1,669.1 1292.9,668.4 1308.1,653.2 		
			"/>
		<polygon fill="#898989" points="1211.7,669.2 1211.7,673.5 1191.7,673.5 1191.7,653.2 1195.7,653.2 1210.9,668.3 1211.7,669.2 		
			"/>
		<polygon fill="#0D4066" points="1289.2,714.2 1289.2,767.6 1284.5,767.6 1257.6,767.6 1254.1,767.6 1251.9,746.9 1249.7,767.6 
			1246.2,767.6 1219.3,767.6 1214.6,767.6 1214.6,714.2 1251.9,714.2 		"/>
		<path fill="#FFFFFF" d="M1308.1,622.6v26.4l-15.9,15.9v4.3l0,0v4.3v40.8h-2.9h-37.3h-37.3h-2.9v-40.8v-4.3h0v0v-4.3l-15.9-15.9
			v-26.4l31-17.1c0,0,7.8,8.2,25.1,8.2c17.4,0,25.1-8.2,25.1-8.2L1308.1,622.6z"/>
		<path fill="#C2CCE8" d="M1226.8,605.4l-31,17.1v26.4l15.9,15.9v4.3v0h0v4.3v2.6c1.7-2.6,2.9-6.3,2.9-11.2c0,0,0.1-51.2,37.3-51.2
			C1234.5,613.6,1226.8,605.4,1226.8,605.4z"/>
		<path fill="#C2CCE8" d="M1277,605.4l31,17.1v26.4l-15.9,15.9v4.3v0h0v4.3v2.6c-1.7-2.6-2.9-6.3-2.9-11.2c0,0-0.1-51.2-37.3-51.2
			C1269.3,613.6,1277,605.4,1277,605.4z"/>
		<path fill="#221F1F" d="M1287.4,826c2.2,0,4,1.9,3.9,4.1l-1.9,44.8c-0.4,9.2-7.9,16.4-17.1,16.4h-41c-9.2,0-16.7-7.2-17.1-16.4
			l-1.9-44.8c-0.1-2.2,1.7-4.1,3.9-4.1h2.9h26.9h11.4h26.9H1287.4z"/>
		<rect x="1257.6" y="767.6" fill="#FED09F" width="26.9" height="31.9"/>
		<rect x="1219.3" y="767.6" fill="#FED09F" width="26.9" height="31.9"/>
		<path fill="#FED09F" d="M1229.8,576.2c-3.1,0-4.6-4.5-4.6-7.8s-0.6-9,1.8-9c2.4,0,2.8,2.6,2.8,2.6v9.2v4.5
			C1229.7,575.9,1229.7,576,1229.8,576.2L1229.8,576.2z"/>
		<path fill="#FED09F" d="M1274.1,575.7v-4.5V562c0,0,0.4-2.6,2.8-2.6s1.8,5.7,1.8,9s-1.5,7.8-4.6,7.8h0
			C1274.1,576,1274.1,575.9,1274.1,575.7z"/>
		<path fill="#F3BC92" d="M1268.8,600.9l5.2,2.9c0,0-8.6,6.3-22.2,6.3c-13.6,0-22.2-6.3-22.2-6.3l5.2-2.9l1.3-7.1
			c4.2,6,9.9,10.6,15.6,10.6s11.4-4.6,15.6-10.5L1268.8,600.9z"/>
		<path fill="#FED09F" d="M1274.1,571.2v4.5c0,0.2,0,0.3,0,0.5c-0.1,5.4-2.7,12.1-6.6,17.7v0c-4.2,6-9.9,10.5-15.6,10.5
			s-11.4-4.6-15.6-10.6c-3.8-5.5-6.4-12.2-6.6-17.7c0-0.2,0-0.3,0-0.5v-4.5l1.3,0.3l2.3-19.3c1-1.5,7.8-5.1,18.6-5.1
			s17.5,3.6,18.6,5.1l2.3,19.3L1274.1,571.2z"/>
		<rect x="1219.3" y="767.6" fill="#F3BC92" width="26.9" height="6.7"/>
		<rect x="1257.6" y="767.6" fill="#F3BC92" width="26.9" height="6.7"/>
		<rect x="1211.7" y="664.9" fill="#0D4066" width="2.9" height="49.4"/>
		<rect x="1289.2" y="664.9" fill="#0D4066" width="2.9" height="49.4"/>
	</g>
</g>
</svg>
